  0
SECTION
  2
HEADER
  9
$ACADVER
  1
AC1015
  9
$ACADMAINTVER
 70
     6
  9
$DWGCODEPAGE
  3
ANSI_1252
  9
$INSBASE
 10
0.0
 20
0.0
 30
0.0
  9
$EXTMIN
 10
-1.2505245853
 20
-0.1903920724
 30
0.0
  9
$EXTMAX
 10
2.7808715639
 20
1.158288541
 30
0.0
  9
$LIMMIN
 10
0.0
 20
0.0
  9
$LIMMAX
 10
420.0
 20
297.0
  9
$ORTHOMODE
 70
     0
  9
$REGENMODE
 70
     1
  9
$FILLMODE
 70
     1
  9
$QTEXTMODE
 70
     0
  9
$MIRRTEXT
 70
     1
  9
$LTSCALE
 40
1.0
  9
$ATTMODE
 70
     1
  9
$TEXTSIZE
 40
0.0035
  9
$TRACEWID
 40
1.0
  9
$TEXTSTYLE
  7
Standard
  9
$CLAYER
  8
0
  9
$CELTYPE
  6
ByLayer
  9
$CECOLOR
 62
   256
  9
$CELTSCALE
 40
1.0
  9
$DISPSILH
 70
     0
  9
$DIMSCALE
 40
1.0
  9
$DIMASZ
 40
0.003556
  9
$DIMEXO
 40
0.0
  9
$DIMDLI
 40
3.75
  9
$DIMRND
 40
0.0
  9
$DIMDLE
 40
0.0
  9
$DIMEXE
 40
0.001
  9
$DIMTP
 40
0.0
  9
$DIMTM
 40
0.0
  9
$DIMTXT
 40
0.0035
  9
$DIMCEN
 40
2.5
  9
$DIMTSZ
 40
0.0
  9
$DIMTOL
 70
     0
  9
$DIMLIM
 70
     0
  9
$DIMTIH
 70
     1
  9
$DIMTOH
 70
     1
  9
$DIMSE1
 70
     0
  9
$DIMSE2
 70
     0
  9
$DIMTAD
 70
     1
  9
$DIMZIN
 70
     1
  9
$DIMBLK
  1

  9
$DIMASO
 70
     1
  9
$DIMSHO
 70
     1
  9
$DIMPOST
  1

  9
$DIMAPOST
  1

  9
$DIMALT
 70
     0
  9
$DIMALTD
 70
     3
  9
$DIMALTF
 40
39.3700787402
  9
$DIMLFAC
 40
1.0
  9
$DIMTOFL
 70
     1
  9
$DIMTVP
 40
0.0
  9
$DIMTIX
 70
     0
  9
$DIMSOXD
 70
     0
  9
$DIMSAH
 70
     0
  9
$DIMBLK1
  1

  9
$DIMBLK2
  1

  9
$DIMSTYLE
  2
ISO-25
  9
$DIMCLRD
 70
     0
  9
$DIMCLRE
 70
     0
  9
$DIMCLRT
 70
     0
  9
$DIMTFAC
 40
1.0
  9
$DIMGAP
 40
0.001524
  9
$DIMJUST
 70
     0
  9
$DIMSD1
 70
     0
  9
$DIMSD2
 70
     0
  9
$DIMTOLJ
 70
     0
  9
$DIMTZIN
 70
     1
  9
$DIMALTZ
 70
     0
  9
$DIMALTTZ
 70
     0
  9
$DIMUPT
 70
     0
  9
$DIMDEC
 70
     2
  9
$DIMTDEC
 70
     2
  9
$DIMALTU
 70
     2
  9
$DIMALTTD
 70
     3
  9
$DIMTXSTY
  7
Standard
  9
$DIMAUNIT
 70
     0
  9
$DIMADEC
 70
     2
  9
$DIMALTRND
 40
0.0
  9
$DIMAZIN
 70
     0
  9
$DIMDSEP
 70
    44
  9
$DIMATFIT
 70
     3
  9
$DIMFRAC
 70
     0
  9
$DIMLDRBLK
  1

  9
$DIMLUNIT
 70
     2
  9
$DIMLWD
 70
    -2
  9
$DIMLWE
 70
    -2
  9
$DIMTMOVE
 70
     0
  9
$LUNITS
 70
     2
  9
$LUPREC
 70
     2
  9
$SKETCHINC
 40
1.0
  9
$FILLETRAD
 40
0.0
  9
$AUNITS
 70
     0
  9
$AUPREC
 70
     2
  9
$MENU
  1
.
  9
$ELEVATION
 40
0.0
  9
$PELEVATION
 40
0.0
  9
$THICKNESS
 40
0.0
  9
$LIMCHECK
 70
     0
  9
$CHAMFERA
 40
0.0
  9
$CHAMFERB
 40
0.0
  9
$CHAMFERC
 40
0.0
  9
$CHAMFERD
 40
0.0
  9
$SKPOLY
 70
     0
  9
$TDCREATE
 40
2461180.854636713
  9
$TDUCREATE
 40
2461181.062970047
  9
$TDUPDATE
 40
2461180.854676297
  9
$TDUUPDATE
 40
2461181.06300963
  9
$TDINDWG
 40
0.0000000116
  9
$TDUSRTIMER
 40
0.0000000116
  9
$USRTIMER
 70
     1
  9
$ANGBASE
 50
0.0
  9
$ANGDIR
 70
     0
  9
$PDMODE
 70
     0
  9
$PDSIZE
 40
-1.0
  9
$PLINEWID
 40
0.0
  9
$SPLFRAME
 70
     0
  9
$SPLINETYPE
 70
     6
  9
$SPLINESEGS
 70
     8
  9
$HANDSEED
  5
1A8
  9
$SURFTAB1
 70
     6
  9
$SURFTAB2
 70
     6
  9
$SURFTYPE
 70
     6
  9
$SURFU
 70
     6
  9
$SURFV
 70
     6
  9
$UCSBASE
  2

  9
$UCSNAME
  2

  9
$UCSORG
 10
0.0
 20
0.0
 30
0.0
  9
$UCSXDIR
 10
1.0
 20
0.0
 30
0.0
  9
$UCSYDIR
 10
0.0
 20
1.0
 30
0.0
  9
$UCSORTHOREF
  2

  9
$UCSORTHOVIEW
 70
     0
  9
$UCSORGTOP
 10
0.0
 20
0.0
 30
0.0
  9
$UCSORGBOTTOM
 10
0.0
 20
0.0
 30
0.0
  9
$UCSORGLEFT
 10
0.0
 20
0.0
 30
0.0
  9
$UCSORGRIGHT
 10
0.0
 20
0.0
 30
0.0
  9
$UCSORGFRONT
 10
0.0
 20
0.0
 30
0.0
  9
$UCSORGBACK
 10
0.0
 20
0.0
 30
0.0
  9
$PUCSBASE
  2

  9
$PUCSNAME
  2

  9
$PUCSORG
 10
0.0
 20
0.0
 30
0.0
  9
$PUCSXDIR
 10
1.0
 20
0.0
 30
0.0
  9
$PUCSYDIR
 10
0.0
 20
1.0
 30
0.0
  9
$PUCSORTHOREF
  2

  9
$PUCSORTHOVIEW
 70
     0
  9
$PUCSORGTOP
 10
0.0
 20
0.0
 30
0.0
  9
$PUCSORGBOTTOM
 10
0.0
 20
0.0
 30
0.0
  9
$PUCSORGLEFT
 10
0.0
 20
0.0
 30
0.0
  9
$PUCSORGRIGHT
 10
0.0
 20
0.0
 30
0.0
  9
$PUCSORGFRONT
 10
0.0
 20
0.0
 30
0.0
  9
$PUCSORGBACK
 10
0.0
 20
0.0
 30
0.0
  9
$USERI1
 70
     0
  9
$USERI2
 70
     0
  9
$USERI3
 70
     0
  9
$USERI4
 70
     0
  9
$USERI5
 70
     0
  9
$USERR1
 40
0.0
  9
$USERR2
 40
0.0
  9
$USERR3
 40
0.0
  9
$USERR4
 40
0.0
  9
$USERR5
 40
0.0
  9
$WORLDVIEW
 70
     1
  9
$SHADEDGE
 70
     3
  9
$SHADEDIF
 70
    70
  9
$TILEMODE
 70
     1
  9
$MAXACTVP
 70
    64
  9
$PINSBASE
 10
0.0
 20
0.0
 30
0.0
  9
$PLIMCHECK
 70
     0
  9
$PEXTMIN
 10
1.0000000000E+20
 20
1.0000000000E+20
 30
1.0000000000E+20
  9
$PEXTMAX
 10
-1.0000000000E+20
 20
-1.0000000000E+20
 30
-1.0000000000E+20
  9
$PLIMMIN
 10
0.0
 20
0.0
  9
$PLIMMAX
 10
420.0
 20
297.0
  9
$UNITMODE
 70
     0
  9
$VISRETAIN
 70
     1
  9
$PLINEGEN
 70
     0
  9
$PSLTSCALE
 70
     1
  9
$TREEDEPTH
 70
  3020
  9
$CMLSTYLE
  2
Standard
  9
$CMLJUST
 70
     0
  9
$CMLSCALE
 40
20.0
  9
$PROXYGRAPHICS
 70
     1
  9
$MEASUREMENT
 70
     1
  9
$CELWEIGHT
370
    -1
  9
$ENDCAPS
280
     0
  9
$JOINSTYLE
280
     0
  9
$LWDISPLAY
290
     1
  9
$INSUNITS
 70
     6
  9
$HYPERLINKBASE
  1

  9
$STYLESHEET
  1

  9
$XEDIT
290
     1
  9
$CEPSNTYPE
380
     0
  9
$PSTYLEMODE
290
     1
  9
$FINGERPRINTGUID
  2
{c8f93132-230b-4e90-9b83-76313419db28}
  9
$VERSIONGUID
  2
{FAEB1C32-E019-11D5-929B-00C0DF256EC4}
  9
$EXTNAMES
290
     1
  9
$PSVPSCALE
 40
0.0
  9
$OLESTARTUP
290
     0
  0
ENDSEC
  0
SECTION
  2
CLASSES
  0
CLASS
  1
ACDBDICTIONARYWDFLT
  2
AcDbDictionaryWithDefault
  3
ObjectDBX Classes
 90
        0
280
     0
281
     0
  0
CLASS
  1
VISUALSTYLE
  2
AcDbVisualStyle
  3
ObjectDBX Classes
 90
     4095
280
     0
281
     0
  0
CLASS
  1
MATERIAL
  2
AcDbMaterial
  3
ObjectDBX Classes
 90
     1153
280
     0
281
     0
  0
CLASS
  1
SCALE
  2
AcDbScale
  3
ObjectDBX Classes
 90
     1153
280
     0
281
     0
  0
CLASS
  1
TABLESTYLE
  2
AcDbTableStyle
  3
ObjectDBX Classes
 90
     4095
280
     0
281
     0
  0
CLASS
  1
MLEADERSTYLE
  2
AcDbMLeaderStyle
  3
ACDB_MLEADERSTYLE_CLASS
 90
     4095
280
     0
281
     0
  0
CLASS
  1
SUN
  2
AcDbSun
  3
SCENEOE
 90
     1153
280
     0
281
     0
  0
CLASS
  1
ACDBPLACEHOLDER
  2
AcDbPlaceHolder
  3
ObjectDBX Classes
 90
        0
280
     0
281
     0
  0
CLASS
  1
LAYOUT
  2
AcDbLayout
  3
ObjectDBX Classes
 90
        0
280
     0
281
     0
  0
ENDSEC
  0
SECTION
  2
TABLES
  0
TABLE
  2
VPORT
  5
8
330
0
100
AcDbSymbolTable
 70
     1
  0
VPORT
  5
29
330
8
100
AcDbSymbolTableRecord
100
AcDbViewportTableRecord
  2
*Active
 70
     0
 10
0.0
 20
0.0
 11
1.0
 21
1.0
 12
0.7651734893
 22
0.4839482343
 13
0.0
 23
0.0
 14
10.0
 24
10.0
 15
10.0
 25
10.0
 16
0.0
 26
0.0
 36
1.0
 17
0.0
 27
0.0
 37
0.0
 40
1.3756542257
 41
2.989140727
 42
50.0
 43
0.0
 44
0.0
 50
0.0
 51
0.0
 71
     0
 72
   100
 73
     1
 74
     3
 75
     0
 76
     0
 77
     0
 78
     0
281
     0
 65
     1
110
0.0
120
0.0
130
0.0
111
1.0
121
0.0
131
0.0
112
0.0
122
1.0
132
0.0
 79
     0
146
0.0
  0
ENDTAB
  0
TABLE
  2
LTYPE
  5
5
330
0
100
AcDbSymbolTable
 70
     6
  0
LTYPE
  5
14
330
5
100
AcDbSymbolTableRecord
100
AcDbLinetypeTableRecord
  2
ByBlock
 70
     0
  3

 72
    65
 73
     0
 40
0.0
  0
LTYPE
  5
15
330
5
100
AcDbSymbolTableRecord
100
AcDbLinetypeTableRecord
  2
ByLayer
 70
     0
  3

 72
    65
 73
     0
 40
0.0
  0
LTYPE
  5
16
330
5
100
AcDbSymbolTableRecord
100
AcDbLinetypeTableRecord
  2
Continuous
 70
     0
  3
Solid line
 72
    65
 73
     0
 40
0.0
  0
LTYPE
  5
5E
330
5
100
AcDbSymbolTableRecord
100
AcDbLinetypeTableRecord
  2
HIDDEN
 70
     0
  3
Hidden __ __ __ __ __ __ __ __ __ __ __ __ __ __
 72
    65
 73
     2
 40
0.001905
 49
0.00127
 74
     0
 49
-0.000635
 74
     0
  0
LTYPE
  5
5F
330
5
100
AcDbSymbolTableRecord
100
AcDbLinetypeTableRecord
  2
PHANTOM
 70
     0
  3
Phantom ______  __  __  ______  __  __  ______
 72
    65
 73
     6
 40
0.0127
 49
0.00635
 74
     0
 49
-0.00127
 74
     0
 49
0.00127
 74
     0
 49
-0.00127
 74
     0
 49
0.00127
 74
     0
 49
-0.00127
 74
     0
  0
LTYPE
  5
60
330
5
100
AcDbSymbolTableRecord
100
AcDbLinetypeTableRecord
  2
CENTER
 70
     0
  3
Center ____ _ ____ _ ____ _ ____ _ ____ _ ____
 72
    65
 73
     4
 40
0.01016
 49
0.00635
 74
     0
 49
-0.00127
 74
     0
 49
0.00127
 74
     0
 49
-0.00127
 74
     0
  0
LTYPE
  5
61
330
5
100
AcDbSymbolTableRecord
100
AcDbLinetypeTableRecord
  2
CENTERX2
 70
     0
  3
Center (2x) ________  __  ________  __  _____
 72
    65
 73
     4
 40
0.02032
 49
0.0127
 74
     0
 49
-0.00254
 74
     0
 49
0.00254
 74
     0
 49
-0.00254
 74
     0
  0
LTYPE
  5
62
330
5
100
AcDbSymbolTableRecord
100
AcDbLinetypeTableRecord
  2
DOT2
 70
     0
  3
Dot (.5x) ........................................
 72
    65
 73
     2
 40
0.000635
 49
0.0
 74
     0
 49
-0.000635
 74
     0
  0
ENDTAB
  0
TABLE
  2
LAYER
  5
2
330
0
100
AcDbSymbolTable
 70
     1
  0
LAYER
  5
10
330
2
100
AcDbSymbolTableRecord
100
AcDbLayerTableRecord
  2
0
 70
     0
 62
     7
  6
Continuous
370
    -3
390
F
  0
ENDTAB
  0
TABLE
  2
STYLE
  5
3
330
0
100
AcDbSymbolTable
 70
     2
  0
STYLE
  5
11
330
3
100
AcDbSymbolTableRecord
100
AcDbTextStyleTableRecord
  2
Standard
 70
     0
 40
0.0
 41
1.0
 50
0.0
 71
     0
 42
0.0035
  3
txt
  4

  0
STYLE
  5
1A4
330
3
100
AcDbSymbolTableRecord
100
AcDbTextStyleTableRecord
  2
SLDTEXTSTYLE0
 70
     0
 40
0.0
 41
0.7
 50
0.0
 71
     0
 42
0.0035
  3
TXT
  4

  0
ENDTAB
  0
TABLE
  2
VIEW
  5
6
330
0
100
AcDbSymbolTable
 70
     0
  0
ENDTAB
  0
TABLE
  2
UCS
  5
7
330
0
100
AcDbSymbolTable
 70
     0
  0
ENDTAB
  0
TABLE
  2
APPID
  5
9
330
0
100
AcDbSymbolTable
 70
     1
  0
APPID
  5
12
330
9
100
AcDbSymbolTableRecord
100
AcDbRegAppTableRecord
  2
ACAD
 70
     0
  0
ENDTAB
  0
TABLE
  2
DIMSTYLE
  5
A
330
0
100
AcDbSymbolTable
 70
     1
100
AcDbDimStyleTable
  0
DIMSTYLE
105
27
330
A
100
AcDbSymbolTableRecord
100
AcDbDimStyleTableRecord
  2
ISO-25
 70
     0
 41
2.5
 42
0.625
 43
3.75
 44
1.25
 73
     0
 74
     0
 77
     1
 78
     8
140
2.5
141
2.5
143
0.0393700787
147
0.625
171
     3
172
     1
178
     0
271
     2
272
     2
274
     3
278
    44
283
     0
284
     8
340
11
  0
ENDTAB
  0
TABLE
  2
BLOCK_RECORD
  5
1
330
0
100
AcDbSymbolTable
 70
     1
  0
BLOCK_RECORD
  5
1F
330
1
100
AcDbSymbolTableRecord
100
AcDbBlockTableRecord
  2
*Model_Space
340
22
  0
BLOCK_RECORD
  5
1B
330
1
100
AcDbSymbolTableRecord
100
AcDbBlockTableRecord
  2
*Paper_Space
340
1E
  0
BLOCK_RECORD
  5
23
330
1
100
AcDbSymbolTableRecord
100
AcDbBlockTableRecord
  2
*Paper_Space0
340
26
  0
ENDTAB
  0
ENDSEC
  0
SECTION
  2
BLOCKS
  0
BLOCK
  5
20
330
1F
100
AcDbEntity
  8
0
100
AcDbBlockBegin
  2
*Model_Space
 70
     0
 10
0.0
 20
0.0
 30
0.0
  3
*Model_Space
  1

  0
ENDBLK
  5
21
330
1F
100
AcDbEntity
  8
0
100
AcDbBlockEnd
  0
BLOCK
  5
1C
330
1B
100
AcDbEntity
 67
     1
  8
0
100
AcDbBlockBegin
  2
*Paper_Space
 70
     0
 10
0.0
 20
0.0
 30
0.0
  3
*Paper_Space
  1

  0
ENDBLK
  5
1D
330
1B
100
AcDbEntity
 67
     1
  8
0
100
AcDbBlockEnd
  0
BLOCK
  5
24
330
23
100
AcDbEntity
  8
0
100
AcDbBlockBegin
  2
*Paper_Space0
 70
     0
 10
0.0
 20
0.0
 30
0.0
  3
*Paper_Space0
  1

  0
ENDBLK
  5
25
330
23
100
AcDbEntity
  8
0
100
AcDbBlockEnd
  0
ENDSEC
  0
SECTION
  2
ENTITIES
  0
SPLINE
  5
71
330
1F
100
AcDbEntity
  8
0
  6
Continuous
 62
     7
370
    25
100
AcDbSpline
210
0.0
220
0.0
230
1.0
 70
     8
 71
     3
 72
    30
 73
    26
 74
     0
 42
0.00000001
 43
0.00000001
 40
0.0
 40
0.0
 40
0.0
 40
0.0
 40
0.020612389281806
 40
0.0649981165941404
 40
0.1093808444882131
 40
0.1537562995415027
 40
0.1981273101760973
 40
0.2424965243280409
 40
0.286866054865702
 40
0.3312387719027647
 40
0.3756175468824506
 40
0.4200052446769957
 40
0.464404714206291
 40
0.5088187768269485
 40
0.553250211962863
 40
0.5977017395149261
 40
0.6421759986762213
 40
0.6866755228908927
 40
0.7312027108349786
 40
0.7757597934695676
 40
0.8203487974168345
 40
0.8649715051444217
 40
0.9096294127013927
 40
0.9543236860306288
 40
1.0
 40
1.0
 40
1.0
 40
1.0
 10
2.610196718714329
 20
0.2168959072133453
 30
0.0
 10
2.609916188624074
 20
0.2160079497189856
 30
0.0
 10
2.609031578535198
 20
0.2132079072804325
 30
0.0
 10
2.607338432826598
 20
0.2085592830195679
 30
0.0
 10
2.605007844426814
 20
0.2030045124041366
 30
0.0
 10
2.602396940614831
 20
0.1975740255535139
 30
0.0
 10
2.599517595064529
 20
0.1922814543229487
 30
0.0
 10
2.596376386193179
 20
0.1871413540339226
 30
0.0
 10
2.59298217093747
 20
0.1821674430386935
 30
0.0
 10
2.589344049596388
 20
0.1773730909518816
 30
0.0
 10
2.585471857555301
 20
0.1727711251127915
 30
0.0
 10
2.581376011975925
 20
0.1683738653071869
 30
0.0
 10
2.577067521825668
 20
0.164193082887675
 30
0.0
 10
2.572557947722057
 20
0.1602399745378554
 30
0.0
 10
2.5678593737634
 20
0.1565251348131911
 30
0.0
 10
2.562984375092999
 20
0.1530585299496288
 30
0.0
 10
2.557945985249748
 20
0.1498494789570581
 30
0.0
 10
2.552757664556407
 20
0.1469066152840089
 30
0.0
 10
2.547433261610373
 20
0.1442379296004972
 30
0.0
 10
2.541986999394764
 20
0.1418505173081963
 30
0.0
 10
2.536433368574183
 20
0.1397514362971267
 30
0.0
 10
2.53078736719198
 20
0.1379444231239914
 30
0.0
 10
2.525063445881105
 20
0.136442088763763
 30
0.0
 10
2.519238528730503
 20
0.1352116703040583
 30
0.0
 10
2.515306862052653
 20
0.134654340839939
 30
0.0
 10
2.513319666362455
 20
0.1343726479092138
 30
0.0
  0
SPLINE
  5
74
330
1F
100
AcDbEntity
  8
0
  6
Continuous
 62
     7
370
    25
100
AcDbSpline
210
0.0
220
0.0
230
1.0
 70
     8
 71
     3
 72
    30
 73
    26
 74
     0
 42
0.00000001
 43
0.00000001
 40
0.0
 40
0.0
 40
0.0
 40
0.0
 40
0.0208630711049206
 40
0.0661186588804929
 40
0.1113826037015722
 40
0.1566557206296697
 40
0.2019391746708029
 40
0.2472340452202537
 40
0.2925413137098544
 40
0.3378618512606615
 40
0.3831964064889967
 40
0.4285455936788473
 40
0.4739098815735386
 40
0.5192895830739052
 40
0.5646848461569453
 40
0.6100956463463114
 40
0.6555217810722292
 40
0.7009628662492362
 40
0.746418335375923
 40
0.7918874414203101
 40
0.8373692616957948
 40
0.8828627058589501
 40
0.9283665270728918
 40
0.9738793362807137
 40
1.0
 40
1.0
 40
1.0
 40
1.0
 10
2.608424229155718
 20
0.2111433085401956
 30
0.0
 10
2.6081449679288
 20
0.2102597136551516
 30
0.0
 10
2.607259941093185
 20
0.2074594495665631
 30
0.0
 10
2.605562029374647
 20
0.2028123120834895
 30
0.0
 10
2.603217890289166
 20
0.1972599170782039
 30
0.0
 10
2.600587997002985
 20
0.1918399022250701
 30
0.0
 10
2.597684148615542
 20
0.1865655674526039
 30
0.0
 10
2.5945128974054
 20
0.1814515702804088
 30
0.0
 10
2.591083114770096
 20
0.1765116727932713
 30
0.0
 10
2.587403938572538
 20
0.1717593040148315
 30
0.0
 10
2.583485294643312
 20
0.1672073642630992
 30
0.0
 10
2.579337726273071
 20
0.1628682339981776
 30
0.0
 10
2.574972407226873
 20
0.1587537292340395
 30
0.0
 10
2.570401103617186
 20
0.1548750726076101
 30
0.0
 10
2.565636147514636
 20
0.1512428620009805
 30
0.0
 10
2.560690405577555
 20
0.1478670402862174
 30
0.0
 10
2.555577246662161
 20
0.1447568703572208
 30
0.0
 10
2.550310509253683
 20
0.1419208956087589
 30
0.0
 10
2.544904461336581
 20
0.1393669615793857
 30
0.0
 10
2.539373781362742
 20
0.137102016192434
 30
0.0
 10
2.533733453017765
 20
0.1351327442712685
 30
0.0
 10
2.527998974552232
 20
0.1334630954494264
 30
0.0
 10
2.522185386551218
 20
0.1321034194408964
 30
0.0
 10
2.517145398436632
 20
0.1311879002786218
 30
0.0
 10
2.514041742075788
 20
0.1307828342114096
 30
0.0
 10
2.512910014675326
 20
0.1306351295966059
 30
0.0
  0
SPLINE
  5
75
330
1F
100
AcDbEntity
  8
0
  6
Continuous
 62
     7
370
    25
100
AcDbSpline
210
0.0
220
0.0
230
1.0
 70
     8
 71
     3
 72
    36
 73
    32
 74
     0
 42
0.00000001
 43
0.00000001
 40
0.0
 40
0.0
 40
0.0
 40
0.0
 40
0.0208608515219827
 40
0.0563989146463154
 40
0.0919389275897637
 40
0.1274799907529813
 40
0.1630223976234837
 40
0.1985664312076185
 40
0.2341123618064807
 40
0.2696604450497939
 40
0.305210920081469
 40
0.340764007912322
 40
0.3763199099512901
 40
0.4118788067251563
 40
0.4474408567932093
 40
0.4830061958601082
 40
0.518574936088989
 40
0.5541471656122284
 40
0.5897229482367938
 40
0.6253023233373517
 40
0.6608853059301871
 40
0.6964718869169592
 40
0.7320620334890034
 40
0.7676556896790862
 40
0.8032527770487228
 40
0.8388531954981797
 40
0.8744568241864407
 40
0.9100635225480639
 40
0.9456731313951938
 40
0.9812854740934008
 40
1.0
 40
1.0
 40
1.0
 40
1.0
 10
2.521700419092005
 20
0.0581411338784003
 30
0.0
 10
2.523187022014663
 20
0.058332344155379
 30
0.0
 10
2.527206167218761
 20
0.0588492958282029
 30
0.0
 10
2.533722509727987
 20
0.059949345130623
 30
0.0
 10
2.541223500466993
 20
0.061518580116464
 30
0.0
 10
2.548654047247068
 20
0.0634003276314016
 30
0.0
 10
2.556002289633686
 20
0.0655856573466715
 30
0.0
 10
2.563255796509559
 20
0.0680724726839359
 30
0.0
 10
2.570402505329348
 20
0.0708562150990931
 30
0.0
 10
2.577430472911089
 20
0.0739323584358392
 30
0.0
 10
2.584327967045851
 20
0.077295749677282
 30
0.0
 10
2.591083466444647
 20
0.0809407957302276
 30
0.0
 10
2.597685684877557
 20
0.084861424461436
 30
0.0
 10
2.604123588424332
 20
0.0890511071851587
 30
0.0
 10
2.610386414129023
 20
0.0935028656320008
 30
0.0
 10
2.616463687799754
 20
0.0982092840155355
 30
0.0
 10
2.622345241519051
 20
0.1031625206610576
 30
0.0
 10
2.628021230680726
 20
0.108354320664701
 30
0.0
 10
2.633482150539407
 20
0.1137760291809103
 30
0.0
 10
2.638718852324891
 20
0.1194186054019064
 30
0.0
 10
2.643722558538253
 20
0.1252726372894006
 30
0.0
 10
2.648484878721268
 20
0.131328356654636
 30
0.0
 10
2.652997820728098
 20
0.1375756560311027
 30
0.0
 10
2.657253815909653
 20
0.1440041018419936
 30
0.0
 10
2.6612456893498
 20
0.1506029642768801
 30
0.0
 10
2.664966832044944
 20
0.1573611875596522
 30
0.0
 10
2.668410616027505
 20
0.164267585343188
 30
0.0
 10
2.671572631826786
 20
0.1713101983035855
 30
0.0
 10
2.674442387933885
 20
0.1784787812038997
 30
0.0
 10
2.676624322802192
 20
0.1846045006069302
 30
0.0
 10
2.677804911088215
 20
0.1883501395162165
 30
0.0
 10
2.678211600275926
 20
0.1896404376358178
 30
0.0
  0
SPLINE
  5
8D
330
1F
100
AcDbEntity
  8
0
  6
Continuous
 62
     7
370
    25
100
AcDbSpline
210
0.0
220
0.0
230
1.0
 70
     8
 71
     3
 72
    11
 73
     7
 74
     0
 42
0.00000001
 43
0.00000001
 40
0.0
 40
0.0
 40
0.0
 40
0.0
 40
0.1128041078620301
 40
0.433814059438789
 40
0.7299420291853762
 40
1.0
 40
1.0
 40
1.0
 40
1.0
 10
1.93307541300739
 20
1.117371200648972
 30
0.0
 10
1.932781879551444
 20
1.117857344111519
 30
0.0
 10
1.931653029348037
 20
1.119726920255102
 30
0.0
 10
1.929302383194031
 20
1.122377589816757
 30
0.0
 10
1.926250314956121
 20
1.125339743157463
 30
0.0
 10
1.924067983562377
 20
1.126909017630997
 30
0.0
 10
1.923027060526995
 20
1.127657526291516
 30
0.0
  0
SPLINE
  5
8F
330
1F
100
AcDbEntity
  8
0
  6
Continuous
 62
     7
370
    25
100
AcDbSpline
210
0.0
220
0.0
230
1.0
 70
     8
 71
     3
 72
    15
 73
    11
 74
     0
 42
0.00000001
 43
0.00000001
 40
0.0
 40
0.0
 40
0.0
 40
0.0
 40
0.1166528783521341
 40
0.2444777815130381
 40
0.3829373936106768
 40
0.5305457299863372
 40
0.6846575568732132
 40
0.8153776454180878
 40
0.9454258221886
 40
1.0
 40
1.0
 40
1.0
 40
1.0
 10
1.923027060526995
 20
1.127657526291516
 30
0.0
 10
1.921944331999019
 20
1.128342474324059
 30
0.0
 10
1.919675180373792
 20
1.129777968911192
 30
0.0
 10
1.915810825827889
 20
1.131531592874883
 30
0.0
 10
1.911379029152834
 20
1.132963136566963
 30
0.0
 10
1.906357519823648
 20
1.133855405772989
 30
0.0
 10
1.901125774663537
 20
1.134032619625473
 30
0.0
 10
1.895851276692251
 20
1.133371865392553
 30
0.0
 10
1.8917002195717
 20
1.132417244427315
 30
0.0
 10
1.88921296013532
 20
1.131271263222453
 30
0.0
 10
1.888477728808368
 20
1.130932512358917
 30
0.0
  0
SPLINE
  5
91
330
1F
100
AcDbEntity
  8
0
  6
Continuous
 62
     7
370
    25
100
AcDbSpline
210
0.0
220
0.0
230
1.0
 70
     8
 71
     3
 72
    21
 73
    17
 74
     0
 42
0.00000001
 43
0.00000001
 40
0.0
 40
0.0
 40
0.0
 40
0.0
 40
0.0755981377148727
 40
0.1553800259259366
 40
0.2385116082983995
 40
0.3239265646235095
 40
0.4106284999131555
 40
0.4653559920053276
 40
0.5206533648931282
 40
0.5770198705347711
 40
0.6352534400064059
 40
0.6963474370525168
 40
0.7612923523611688
 40
0.8398647051053467
 40
0.924707539652092
 40
1.0
 40
1.0
 40
1.0
 40
1.0
 10
1.9006821088809
 20
1.126981694488492
 30
0.0
 10
1.899411639367316
 20
1.126937770721142
 30
0.0
 10
1.896800390043907
 20
1.126847492358262
 30
0.0
 10
1.892614956055107
 20
1.12613012052811
 30
0.0
 10
1.888140056245474
 20
1.124825377054972
 30
0.0
 10
1.883451440210975
 20
1.122745702922153
 30
0.0
 10
1.879294084916852
 20
1.120122961620222
 30
0.0
 10
1.875834056862848
 20
1.117245695646706
 30
0.0
 10
1.873079552764899
 20
1.114418047101991
 30
0.0
 10
1.870544959789304
 20
1.111167393971365
 30
0.0
 10
1.868319813746842
 20
1.107517730220535
 30
0.0
 10
1.86649365897173
 20
1.103521137301104
 30
0.0
 10
1.865076322340264
 20
1.099053537282184
 30
0.0
 10
1.86423402092263
 20
1.094203740836464
 30
0.0
 10
1.864029252194864
 20
1.089377450128456
 30
0.0
 10
1.864420074363042
 20
1.086444647573341
 30
0.0
 10
1.864603831245746
 20
1.085065701599972
 30
0.0
  0
SPLINE
  5
92
330
1F
100
AcDbEntity
  8
0
  6
Continuous
 62
     7
370
    25
100
AcDbSpline
210
0.0
220
0.0
230
1.0
 70
     8
 71
     3
 72
    12
 73
     8
 74
     0
 42
0.00000001
 43
0.00000001
 40
0.0
 40
0.0
 40
0.0
 40
0.0
 40
0.0349270057218326
 40
0.3188755880199585
 40
0.5736006041555631
 40
0.7999806183043153
 40
1.0
 40
1.0
 40
1.0
 40
1.0
 10
1.917209183947881
 20
1.123102621404122
 30
0.0
 10
1.917043966808875
 20
1.123198136606099
 30
0.0
 10
1.915535572050643
 20
1.124070168592972
 30
0.0
 10
1.912520821110552
 20
1.125147109802961
 30
0.0
 10
1.90836417503646
 20
1.126290933146017
 30
0.0
 10
1.904456703282433
 20
1.126889620938108
 30
0.0
 10
1.901887360168723
 20
1.12695229483561
 30
0.0
 10
1.9006821088809
 20
1.126981694488492
 30
0.0
  0
SPLINE
  5
93
330
1F
100
AcDbEntity
  8
0
  6
Continuous
 62
     7
370
    25
100
AcDbSpline
210
0.0
220
0.0
230
1.0
 70
     8
 71
     3
 72
    11
 73
     7
 74
     0
 42
0.00000001
 43
0.00000001
 40
0.0
 40
0.0
 40
0.0
 40
0.0
 40
0.1258240740225256
 40
0.4304087696822669
 40
0.7228240072154938
 40
1.0
 40
1.0
 40
1.0
 40
1.0
 10
1.888445653589984
 20
1.130939250250108
 30
0.0
 10
1.889074214501825
 20
1.131230379265701
 30
0.0
 10
1.891224344600833
 20
1.132226249749099
 30
0.0
 10
1.894763581517546
 20
1.133118997504308
 30
0.0
 10
1.898939189413185
 20
1.133832969861527
 30
0.0
 10
1.901541345318899
 20
1.133892010690172
 30
0.0
 10
1.90280761331629
 20
1.133920741294548
 30
0.0
  0
SPLINE
  5
94
330
1F
100
AcDbEntity
  8
0
  6
Continuous
 62
     7
370
    25
100
AcDbSpline
210
0.0
220
0.0
230
1.0
 70
     8
 71
     3
 72
    15
 73
    11
 74
     0
 42
0.00000001
 43
0.00000001
 40
0.0
 40
0.0
 40
0.0
 40
0.0
 40
0.0935301930544526
 40
0.1994204739254724
 40
0.3186096700146284
 40
0.4515202527439423
 40
0.5977342688423162
 40
0.7556470702131725
 40
0.8800013147841386
 40
1.0
 40
1.0
 40
1.0
 40
1.0
 10
1.90280761331629
 20
1.133920741294548
 30
0.0
 10
1.904009294168047
 20
1.133878959853473
 30
0.0
 10
1.906571458931516
 20
1.133789875521361
 30
0.0
 10
1.910459823435657
 20
1.133137472498189
 30
0.0
 10
1.914624744703929
 20
1.131980392011025
 30
0.0
 10
1.918974095368408
 20
1.130155822233567
 30
0.0
 10
1.923394252507773
 20
1.127566802467702
 30
0.0
 10
1.927309672881671
 20
1.12441142127332
 30
0.0
 10
1.930629133818597
 20
1.120975157293171
 30
0.0
 10
1.932338795225488
 20
1.118530635679325
 30
0.0
 10
1.933178388682257
 20
1.117330161513129
 30
0.0
  0
LWPOLYLINE
  5
95
330
1F
100
AcDbEntity
  8
0
  6
Continuous
 62
     7
370
    25
100
AcDbPolyline
 90
        7
 70
   128
 43
0.0
 10
2.5133196664
 20
0.1343726479
 10
2.5134762652
 20
0.1343824366
 10
2.5141629167
 20
0.1342079509
 10
2.5148854029
 20
0.133686174
 10
2.5156367659
 20
0.1328221311
 10
2.5164097694
 20
0.1316241433
 10
2.5166236185
 20
0.1312404439
  0
SPLINE
  5
96
330
1F
100
AcDbEntity
  8
0
  6
Continuous
 62
     7
370
    25
100
AcDbSpline
210
0.0
220
0.0
230
1.0
 70
     8
 71
     3
 72
    20
 73
    16
 74
     0
 42
0.00000001
 43
0.00000001
 40
0.0
 40
0.0
 40
0.0
 40
0.0
 40
0.0297813618362492
 40
0.0933200987969397
 40
0.1573215453587704
 40
0.2221044023237867
 40
0.2877512426048322
 40
0.3762495539578405
 40
0.4650089487239677
 40
0.5527287471635186
 40
0.6547426636125272
 40
0.7514585679074185
 40
0.8415917635390597
 40
0.9244868780005516
 40
1.0
 40
1.0
 40
1.0
 40
1.0
 10
0.0310399124972724
 20
0.0021309065317527
 30
0.0
 10
0.030983166158407
 20
0.0014212487014932
 30
0.0
 10
0.0308053511216602
 20
-0.0008024689107493
 30
0.0
 10
0.0311189927496223
 20
-0.0045832696256198
 30
0.0
 10
0.0319447580212989
 20
-0.0090482020830607
 30
0.0
 10
0.0333223381094785
 20
-0.0133030790148317
 30
0.0
 10
0.0353538961171
 20
-0.0177062026386036
 30
0.0
 10
0.0381333730597682
 20
-0.0220332646235784
 30
0.0
 10
0.0416382697146013
 20
-0.0260271947553596
 30
0.0
 10
0.0456789368600475
 20
-0.0294960068035822
 30
0.0
 10
0.0501188977438388
 20
-0.0323013558583568
 30
0.0
 10
0.0547940815518573
 20
-0.034378322252211
 30
0.0
 10
0.0592732139134953
 20
-0.0356787441078709
 30
0.0
 10
0.0634579118949182
 20
-0.0363915980190088
 30
0.0
 10
0.0661404610735286
 20
-0.0364734711310645
 30
0.0
 10
0.067419230839038
 20
-0.0365125000000001
 30
0.0
  0
SPLINE
  5
99
330
1F
100
AcDbEntity
  8
0
  6
Continuous
 62
     7
370
    25
100
AcDbSpline
210
0.0
220
0.0
230
1.0
 70
     8
 71
     3
 72
    15
 73
    11
 74
     0
 42
0.00000001
 43
0.00000001
 40
0.0
 40
0.0
 40
0.0
 40
0.0
 40
0.0012073694237556
 40
0.1953002242691148
 40
0.3653835112520111
 40
0.5128176571432251
 40
0.668690426329297
 40
0.7981368346054889
 40
0.9068304824471882
 40
1.0
 40
1.0
 40
1.0
 40
1.0
 10
1.66787741067327
 20
1.138794733750967
 30
0.0
 10
1.667884038428262
 20
1.138806300994144
 30
0.0
 10
1.668956122921143
 20
1.140677381329877
 30
0.0
 10
1.671361703743585
 20
1.143937164043455
 30
0.0
 10
1.674959151486188
 20
1.148297809025985
 30
0.0
 10
1.67872857162007
 20
1.151938388964741
 30
0.0
 10
1.682562544078029
 20
1.154829822471661
 30
0.0
 10
1.686433842137328
 20
1.156855577073436
 30
0.0
 10
1.689941257689828
 20
1.158021186975939
 30
0.0
 10
1.692172948445028
 20
1.158204112211412
 30
0.0
 10
1.693202980598655
 20
1.158288540967416
 30
0.0
  0
SPLINE
  5
9A
330
1F
100
AcDbEntity
  8
0
  6
Continuous
 62
     7
370
    25
100
AcDbSpline
210
0.0
220
0.0
230
1.0
 70
     8
 71
     3
 72
    15
 73
    11
 74
     0
 42
0.00000001
 43
0.00000001
 40
0.0
 40
0.0
 40
0.0
 40
0.0
 40
0.1809602969962419
 40
0.3541245771842695
 40
0.5027091019408102
 40
0.6289733222616956
 40
0.7376449796954327
 40
0.8332961126824635
 40
0.9197897389657764
 40
1.0
 40
1.0
 40
1.0
 40
1.0
 10
1.530116288644633
 20
0.4918075
 30
0.0
 10
1.53064069188368
 20
0.4898908186228454
 30
0.0
 10
1.531666906353837
 20
0.4861400291206824
 30
0.0
 10
1.533959943982723
 20
0.4810978989904462
 30
0.0
 10
1.536611226263055
 20
0.476937421557752
 30
0.0
 10
1.539466804492252
 20
0.4738151812237137
 30
0.0
 10
1.542390669251488
 20
0.4716265342721077
 30
0.0
 10
1.54529222578185
 20
0.4702558099267737
 30
0.0
 10
1.548100885113763
 20
0.4695165052484882
 30
0.0
 10
1.549934072374484
 20
0.469457016884581
 30
0.0
 10
1.55081611796486
 20
0.469428393813612
 30
0.0
  0
SPLINE
  5
9B
330
1F
100
AcDbEntity
  8
0
  6
Continuous
 62
     7
370
    25
100
AcDbSpline
210
0.0
220
0.0
230
1.0
 70
     8
 71
     3
 72
    14
 73
    10
 74
     0
 42
0.00000001
 43
0.00000001
 40
0.0
 40
0.0
 40
0.0
 40
0.0
 40
0.1010311727660288
 40
0.2183122632324165
 40
0.3571592964948134
 40
0.5233750196570945
 40
0.6798690798270687
 40
0.859788365208929
 40
1.0
 40
1.0
 40
1.0
 40
1.0
 10
1.55081611796486
 20
0.469428393813612
 30
0.0
 10
1.551842955666424
 20
0.4695022133898906
 30
0.0
 10
1.554061788294647
 20
0.4696617257297657
 30
0.0
 10
1.557553520768998
 20
0.4707592946873327
 30
0.0
 10
1.561401869503094
 20
0.4726870240388149
 30
0.0
 10
1.565216758370584
 20
0.4754501416740177
 30
0.0
 10
1.568937657205672
 20
0.4789541203430712
 30
0.0
 10
1.572146661080239
 20
0.4825962442948245
 30
0.0
 10
1.573990074242544
 20
0.485276215256575
 30
0.0
 10
1.57479745633779
 20
0.4864499947513413
 30
0.0
  0
SPLINE
  5
9C
330
1F
100
AcDbEntity
  8
0
  6
Continuous
 62
     7
370
    25
100
AcDbSpline
210
0.0
220
0.0
230
1.0
 70
     8
 71
     3
 72
    16
 73
    12
 74
     0
 42
0.00000001
 43
0.00000001
 40
0.0
 40
0.0
 40
0.0
 40
0.0
 40
0.0756253324540775
 40
0.1571129040527054
 40
0.2473984249317547
 40
0.3504329589647773
 40
0.4708686536571823
 40
0.6134781600279212
 40
0.7838812318288325
 40
0.9838294364675492
 40
1.0
 40
1.0
 40
1.0
 40
1.0
 10
1.693202980598655
 20
1.158288540967416
 30
0.0
 10
1.69408602715922
 20
1.158265651148389
 30
0.0
 10
1.695920571286725
 20
1.158218097163184
 30
0.0
 10
1.698732662033631
 20
1.157473261813077
 30
0.0
 10
1.701632175568634
 20
1.156073606105439
 30
0.0
 10
1.704547331404136
 20
1.153826901808274
 30
0.0
 10
1.707379549757084
 20
1.150613256354276
 30
0.0
 10
1.710042085206995
 20
1.146298251752718
 30
0.0
 10
1.712322495920948
 20
1.140775210984471
 30
0.0
 10
1.713687630547941
 20
1.136460751092876
 30
0.0
 10
1.71408109553506
 20
1.133978247332869
 30
0.0
 10
1.71411053560001
 20
1.1337925
 30
0.0
  0
SPLINE
  5
9D
330
1F
100
AcDbEntity
  8
0
  6
Continuous
 62
     7
370
    25
100
AcDbSpline
210
0.0
220
0.0
230
1.0
 70
     8
 71
     3
 72
    13
 73
     9
 74
     0
 42
0.00000001
 43
0.00000001
 40
0.0
 40
0.0
 40
0.0
 40
0.0
 40
0.1397268601493123
 40
0.2978098168509825
 40
0.4759366970597054
 40
0.6750886956772915
 40
0.8495306070487054
 40
1.0
 40
1.0
 40
1.0
 40
1.0
 10
2.356891728868585
 20
-0.1732288203448775
 30
0.0
 10
2.357889881689142
 20
-0.1731900775621179
 30
0.0
 10
2.360017315944529
 20
-0.1731075023076137
 30
0.0
 10
2.363353079661009
 20
-0.1723743241216273
 30
0.0
 10
2.366938315780589
 20
-0.1710018507733156
 30
0.0
 10
2.370305934324919
 20
-0.1689224044143512
 30
0.0
 10
2.373159125457543
 20
-0.1664595220994949
 30
0.0
 10
2.374543610069244
 20
-0.1645918164293038
 30
0.0
 10
2.375184777539569
 20
-0.1637268648727823
 30
0.0
  0
SPLINE
  5
9E
330
1F
100
AcDbEntity
  8
0
  6
Continuous
 62
     7
370
    25
100
AcDbSpline
210
0.0
220
0.0
230
1.0
 70
     8
 71
     3
 72
    16
 73
    12
 74
     0
 42
0.00000001
 43
0.00000001
 40
0.0
 40
0.0
 40
0.0
 40
0.0
 40
0.0410237662364871
 40
0.1776490067490212
 40
0.3091648741717154
 40
0.4336924832533803
 40
0.5499775044655927
 40
0.6827345920514802
 40
0.8014761478344128
 40
0.9068562466557228
 40
1.0
 40
1.0
 40
1.0
 40
1.0
 10
2.334714274076254
 20
-0.153879572421571
 30
0.0
 10
2.334749243512965
 20
-0.1543180749845731
 30
0.0
 10
2.334900674896973
 20
-0.1562169631638097
 30
0.0
 10
2.336020117170809
 20
-0.1593859341448624
 30
0.0
 10
2.337958270694469
 20
-0.1631257980308816
 30
0.0
 10
2.340465646307591
 20
-0.1662614103649203
 30
0.0
 10
2.343465674473103
 20
-0.1689306802076646
 30
0.0
 10
2.346848116693766
 20
-0.1709997743924367
 30
0.0
 10
2.350429715517674
 20
-0.1723747879517322
 30
0.0
 10
2.353766279273336
 20
-0.1731074071993407
 30
0.0
 10
2.35589361971731
 20
-0.1731900471802648
 30
0.0
 10
2.356891728868585
 20
-0.1732288203448775
 30
0.0
  0
SPLINE
  5
9F
330
1F
100
AcDbEntity
  8
0
  6
Continuous
 62
     7
370
    25
100
AcDbSpline
210
0.0
220
0.0
230
1.0
 70
     8
 71
     3
 72
    14
 73
    10
 74
     0
 42
0.00000001
 43
0.00000001
 40
0.0
 40
0.0
 40
0.0
 40
0.0
 40
0.25
 40
0.25
 40
0.5
 40
0.5
 40
0.75
 40
0.75
 40
1.0
 40
1.0
 40
1.0
 40
1.0
 10
2.389108598688376
 20
-0.1679195519325383
 30
0.0
 10
2.389782422619141
 20
-0.1666561394901164
 30
0.0
 10
2.390391690141092
 20
-0.1653342175716747
 30
0.0
 10
2.391456529202911
 20
-0.1625944906501403
 30
0.0
 10
2.391912026307526
 20
-0.1611767226583373
 30
0.0
 10
2.392649485399658
 20
-0.1582729930242422
 30
0.0
 10
2.392931387787224
 20
-0.1567870961006078
 30
0.0
 10
2.393308776139186
 20
-0.1537797983935075
 30
0.0
 10
2.393404228868584
 20
-0.1522584824035081
 30
0.0
 10
2.393404228868584
 20
-0.1507371203448776
 30
0.0
  0
SPLINE
  5
A5
330
1F
100
AcDbEntity
  8
0
  6
Continuous
 62
     7
370
    25
100
AcDbSpline
210
0.0
220
0.0
230
1.0
 70
     8
 71
     3
 72
    22
 73
    18
 74
     0
 42
0.00000001
 43
0.00000001
 40
0.0
 40
0.0
 40
0.0
 40
0.0
 40
0.057879182206265
 40
0.1215087836409436
 40
0.1909267247486862
 40
0.2658534662092973
 40
0.345610941588517
 40
0.4150123013096341
 40
0.4862321125007396
 40
0.5584505600172629
 40
0.6309789794342291
 40
0.7034106872706146
 40
0.7756769755455851
 40
0.8479432638205514
 40
0.920374971656935
 40
0.9929033910739021
 40
1.0
 40
1.0
 40
1.0
 40
1.0
 10
2.764608863084055
 20
0.558702697224461
 30
0.0
 10
2.765651518380006
 20
0.5579608273535623
 30
0.0
 10
2.767840418981891
 20
0.556403381270245
 30
0.0
 10
2.770930122266749
 20
0.5534858091119668
 30
0.0
 10
2.773939538580527
 20
0.5499135020202162
 30
0.0
 10
2.776681164057412
 20
0.5455824382480053
 30
0.0
 10
2.778818791111041
 20
0.5407771805560159
 30
0.0
 10
2.780254146511422
 20
0.5356440783158671
 30
0.0
 10
2.780950964777957
 20
0.5303655920806898
 30
0.0
 10
2.78084822704621
 20
0.5247617218768068
 30
0.0
 10
2.779830369314104
 20
0.5190089017582356
 30
0.0
 10
2.777836788157597
 20
0.5133283978280074
 30
0.0
 10
2.774882845109135
 20
0.5079796606567067
 30
0.0
 10
2.771081752466503
 20
0.5031745791430413
 30
0.0
 10
2.766592028959353
 20
0.4992207902623472
 30
0.0
 10
2.763188446562789
 20
0.4968245185593373
 30
0.0
 10
2.761302693985074
 20
0.4960053047112
 30
0.0
 10
2.761134625616951
 20
0.4959322919860801
 30
0.0
  0
SPLINE
  5
A7
330
1F
100
AcDbEntity
  8
0
  6
Continuous
 62
     7
370
    25
100
AcDbSpline
210
0.0
220
0.0
230
1.0
 70
     8
 71
     3
 72
    24
 73
    20
 74
     0
 42
0.00000001
 43
0.00000001
 40
0.0
 40
0.0
 40
0.0
 40
0.0
 40
0.0466755864575403
 40
0.1149930145058007
 40
0.1646006405276234
 40
0.2126664934847938
 40
0.2594391003500947
 40
0.3054890609267468
 40
0.3515863307122853
 40
0.3984932238592717
 40
0.4467605558384951
 40
0.4966118220207566
 40
0.565279271384809
 40
0.6356086956273327
 40
0.7062473300275898
 40
0.7894507201672942
 40
0.8690660553405067
 40
0.9436806165367224
 40
1.0
 40
1.0
 40
1.0
 40
1.0
 10
1.864634881687263
 20
1.085100439317508
 30
0.0
 10
1.864458913143083
 20
1.086253316991913
 30
0.0
 10
1.864025385577837
 20
1.089093621510783
 30
0.0
 10
1.864183927065335
 20
1.093628305776672
 30
0.0
 10
1.864942245218808
 20
1.098407374214635
 30
0.0
 10
1.866185709952273
 20
1.10270054618355
 30
0.0
 10
1.867982313216692
 20
1.106888638434301
 30
0.0
 10
1.870317529476367
 20
1.110863903209804
 30
0.0
 10
1.873136225884064
 20
1.114515861321755
 30
0.0
 10
1.876356960761682
 20
1.117754303137825
 30
0.0
 10
1.879883894471625
 20
1.120519429913667
 30
0.0
 10
1.884051672794823
 20
1.12304410061341
 30
0.0
 10
1.888787709475366
 20
1.125083748845447
 30
0.0
 10
1.893921431159632
 20
1.126442369755401
 30
0.0
 10
1.899211625199984
 20
1.127073267122612
 30
0.0
 10
1.904462573191753
 20
1.12693961789074
 30
0.0
 10
1.909488624096626
 20
1.126058330598333
 30
0.0
 10
1.91370742857646
 20
1.124780044256151
 30
0.0
 10
1.916124915606565
 20
1.123621959579639
 30
0.0
 10
1.917164763442968
 20
1.123123825843967
 30
0.0
  0
SPLINE
  5
A8
330
1F
100
AcDbEntity
  8
0
  6
Continuous
 62
     7
370
    25
100
AcDbSpline
210
0.0
220
0.0
230
1.0
 70
     8
 71
     3
 72
     9
 73
     5
 74
     0
 42
0.00000001
 43
0.00000001
 40
0.0
 40
0.0
 40
0.0
 40
0.0
 40
0.8886528051251079
 40
1.0
 40
1.0
 40
1.0
 40
1.0
 10
1.738891335829
 20
-0.0365125000000001
 30
0.0
 10
1.739762594701492
 20
-0.0365065041290785
 30
0.0
 10
1.740743021328705
 20
-0.0364997569822887
 30
0.0
 10
1.741719311106877
 20
-0.0363974047785353
 30
0.0
 10
1.741828018235063
 20
-0.0363860081477581
 30
0.0
  0
LWPOLYLINE
  5
B5
330
1F
100
AcDbEntity
  8
0
  6
Continuous
 62
     7
370
    25
100
AcDbPolyline
 90
        3
 70
   128
 43
0.0
 10
2.5133179039
 20
0.1343724246
 10
2.5135283006
 20
0.1343813775
 10
2.5142179853
 20
0.1341797409
  0
SPLINE
  5
BB
330
1F
100
AcDbEntity
  8
0
  6
Continuous
 62
     7
370
    25
100
AcDbSpline
210
0.0
220
0.0
230
1.0
 70
    24
 71
     3
 72
    28
 73
    24
 74
     0
 42
0.00000001
 43
0.00000001
 40
0.0
 40
0.0
 40
0.0
 40
0.0
 40
0.1250000000000005
 40
0.1250000000000005
 40
0.250000000000001
 40
0.250000000000001
 40
0.3750000000000015
 40
0.3750000000000015
 40
0.500000000000002
 40
0.500000000000002
 40
0.5625000000000018
 40
0.5625000000000018
 40
0.6250000000000016
 40
0.6250000000000016
 40
0.6875000000000014
 40
0.6875000000000014
 40
0.7500000000000012
 40
0.7500000000000012
 40
0.812500000000001
 40
0.812500000000001
 40
0.8750000000000008
 40
0.8750000000000008
 40
1.0
 40
1.0
 40
1.0
 40
1.0
 10
-0.1827720852939521
 20
0.52832
 30
0.0
 10
-0.177305459549659
 20
0.530471519695673
 30
0.0
 10
-0.1716344013333779
 20
0.5327034986198518
 30
0.0
 10
-0.1601477202981116
 20
0.5372243532825453
 30
0.0
 10
-0.1543332653384581
 20
0.539512769382432
 30
0.0
 10
-0.1429133501134909
 20
0.5440073467833235
 30
0.0
 10
-0.1373102045970639
 20
0.546212597060224
 30
0.0
 10
-0.12670279118195
 20
0.5503873951807258
 30
0.0
 10
-0.1217012774098439
 20
0.5523558590727526
 30
0.0
 10
-0.1149082258387317
 20
0.5550294249857343
 30
0.0
 10
-0.1127614600604543
 20
0.5558743353692157
 30
0.0
 10
-0.1087354768780494
 20
0.5574588561534372
 30
0.0
 10
-0.106856301062711
 20
0.5581984501859264
 30
0.0
 10
-0.103388851117557
 20
0.559563147020815
 30
0.0
 10
-0.1018005917635647
 20
0.5601882440078403
 30
0.0
 10
-0.0989283169993268
 20
0.561318695590902
 30
0.0
 10
-0.0976442898912177
 20
0.5618240547909094
 30
0.0
 10
-0.0953837697420867
 20
0.5627137358941742
 30
0.0
 10
-0.0944072424496872
 20
0.5630980712778713
 30
0.0
 10
-0.0927556674225111
 20
0.5637480876437364
 30
0.0
 10
-0.0920805692577341
 20
0.5640137884738229
 30
0.0
 10
-0.0904863405391717
 20
0.5646412348452844
 30
0.0
 10
-0.090000370077987
 20
0.5648325000000002
 30
0.0
 10
-0.090000370077987
 20
0.5648325
 30
0.0
  0
SPLINE
  5
BC
330
1F
100
AcDbEntity
  8
0
  6
Continuous
 62
     7
370
    25
100
AcDbSpline
210
0.0
220
0.0
230
1.0
 70
    24
 71
     3
 72
    26
 73
    22
 74
     0
 42
0.00000001
 43
0.00000001
 40
0.0
 40
0.0
 40
0.0
 40
0.0
 40
0.0625000000000014
 40
0.0625000000000014
 40
0.1250000000000028
 40
0.1250000000000028
 40
0.1875000000000042
 40
0.1875000000000042
 40
0.2500000000000057
 40
0.2500000000000057
 40
0.3750000000000048
 40
0.3750000000000048
 40
0.5000000000000039
 40
0.5000000000000039
 40
0.6250000000000029
 40
0.6250000000000029
 40
0.750000000000002
 40
0.750000000000002
 40
0.875000000000001
 40
0.875000000000001
 40
1.0
 40
1.0
 40
1.0
 40
1.0
 10
1.53056760750889
 20
0.5648325000000002
 30
0.0
 10
1.53056760750889
 20
0.5648325000000004
 30
0.0
 10
1.530644555713764
 20
0.5647370482646723
 30
0.0
 10
1.530948783365464
 20
0.5643596637975847
 30
0.0
 10
1.531176036020794
 20
0.564077764299803
 30
0.0
 10
1.531770531055326
 20
0.5633403126232744
 30
0.0
 10
1.532137725389578
 20
0.5628848200427198
 30
0.0
 10
1.532996134738123
 20
0.5618199912780351
 30
0.0
 10
1.533487289748257
 20
0.5612107295271052
 30
0.0
 10
1.535116879835346
 20
0.5591892762399081
 30
0.0
 10
1.536411418779863
 20
0.5575834429536497
 30
0.0
 10
1.539239425746535
 20
0.5540753926627885
 30
0.0
 10
1.540771557437542
 20
0.5521748333333333
 30
0.0
 10
1.543911234338666
 20
0.5482801666666666
 30
0.0
 10
1.5455183319268
 20
0.5462866145899087
 30
0.0
 10
1.548689322358436
 20
0.5423531045112151
 30
0.0
 10
1.550253381678936
 20
0.5404129400000002
 30
0.0
 10
1.553267471504015
 20
0.5366740600000001
 30
0.0
 10
1.554717904370997
 20
0.5348748453937925
 30
0.0
 10
1.557471791229215
 20
0.5314587386770041
 30
0.0
 10
1.558775642167423
 20
0.5298413541666666
 30
0.0
 10
1.560002078456925
 20
0.52832
 30
0.0
  0
SPLINE
  5
BD
330
1F
100
AcDbEntity
  8
0
  6
Continuous
 62
     7
370
    25
100
AcDbSpline
210
0.0
220
0.0
230
1.0
 70
    24
 71
     3
 72
    22
 73
    18
 74
     0
 42
0.00000001
 43
0.00000001
 40
0.0
 40
0.0
 40
0.0
 40
0.0
 40
0.125
 40
0.125
 40
0.25
 40
0.25
 40
0.375
 40
0.375
 40
0.5
 40
0.5
 40
0.625
 40
0.625
 40
0.75
 40
0.75
 40
0.875
 40
0.875
 40
1.0
 40
1.0
 40
1.0
 40
1.0
 10
-0.168401728411507
 20
0.4918075
 30
0.0
 10
-0.168401728411507
 20
0.4918075
 30
0.0
 10
-0.1684770053312588
 20
0.4919987651547155
 30
0.0
 10
-0.1688062671195046
 20
0.492835360316664
 30
0.0
 10
-0.1690605405681022
 20
0.4934814235541929
 30
0.0
 10
-0.1697608505970231
 20
0.4952607857607231
 30
0.0
 10
-0.1702070524121536
 20
0.4963945045617401
 30
0.0
 10
-0.1712812697653173
 20
0.4991238982315179
 30
0.0
 10
-0.171909211813838
 20
0.5007193863766051
 30
0.0
 10
-0.1733122051747705
 20
0.504284140927247
 30
0.0
 10
-0.1740869406390262
 20
0.506252604819274
 30
0.0
 10
-0.1757300310574794
 20
0.5104274029397758
 30
0.0
 10
-0.1765979593969293
 20
0.5126326532166763
 30
0.0
 10
-0.1783669065050864
 20
0.5171272306175678
 30
0.0
 10
-0.1792675667187368
 20
0.5194156467174549
 30
0.0
 10
-0.181046855864004
 20
0.5239365013801481
 30
0.0
 10
-0.1819253038939814
 20
0.5261684803043273
 30
0.0
 10
-0.1827720852939521
 20
0.52832
 30
0.0
  0
SPLINE
  5
BE
330
1F
100
AcDbEntity
  8
0
  6
Continuous
 62
     7
370
    25
100
AcDbSpline
210
0.0
220
0.0
230
1.0
 70
    24
 71
     3
 72
    26
 73
    22
 74
     0
 42
0.00000001
 43
0.00000001
 40
0.0
 40
0.0
 40
0.0
 40
0.0
 40
0.1249999999999993
 40
0.1249999999999993
 40
0.2499999999999987
 40
0.2499999999999987
 40
0.374999999999998
 40
0.374999999999998
 40
0.4999999999999973
 40
0.4999999999999973
 40
0.6249999999999967
 40
0.6249999999999967
 40
0.749999999999996
 40
0.749999999999996
 40
0.812499999999997
 40
0.812499999999997
 40
0.874999999999998
 40
0.874999999999998
 40
0.937499999999999
 40
0.937499999999999
 40
1.0
 40
1.0
 40
1.0
 40
1.0
 10
1.560002078456925
 20
0.52832
 30
0.0
 10
1.561228514746426
 20
0.5267986458333335
 30
0.0
 10
1.562532365684635
 20
0.525181261322996
 30
0.0
 10
1.565286252542853
 20
0.5217651546062078
 30
0.0
 10
1.566736685409835
 20
0.51996594
 30
0.0
 10
1.569750775234914
 20
0.51622706
 30
0.0
 10
1.571314834555413
 20
0.514286895488785
 30
0.0
 10
1.574485824987049
 20
0.5103533854100915
 30
0.0
 10
1.576092922575183
 20
0.5083598333333332
 30
0.0
 10
1.579232599476306
 20
0.5044651666666665
 30
0.0
 10
1.580764731167313
 20
0.5025646073372114
 30
0.0
 10
1.583592738133984
 20
0.4990565570463502
 30
0.0
 10
1.584887277078503
 20
0.4974507237600923
 30
0.0
 10
1.586516867165592
 20
0.4954292704728951
 30
0.0
 10
1.587008022175724
 20
0.4948200087219651
 30
0.0
 10
1.587866431524269
 20
0.4937551799572801
 30
0.0
 10
1.588233625858522
 20
0.4932996873767259
 30
0.0
 10
1.588828120893053
 20
0.4925622357001971
 30
0.0
 10
1.589055373548383
 20
0.4922803362024152
 30
0.0
 10
1.589359601200084
 20
0.4919029517353276
 30
0.0
 10
1.589436549404957
 20
0.4918074999999999
 30
0.0
 10
1.589436549404957
 20
0.4918074999999998
 30
0.0
  0
SPLINE
  5
BF
330
1F
100
AcDbEntity
  8
0
  6
Continuous
 62
     7
370
    25
100
AcDbSpline
210
0.0
220
0.0
230
1.0
 70
     8
 71
     3
 72
    15
 73
    11
 74
     0
 42
0.00000001
 43
0.00000001
 40
0.0
 40
0.0
 40
0.0
 40
0.0
 40
0.0902006721373061
 40
0.1949034646805944
 40
0.3192619979357928
 40
0.4689524933851626
 40
0.6107069085312031
 40
0.7745424934751112
 40
0.9619398678139108
 40
1.0
 40
1.0
 40
1.0
 40
1.0
 10
1.693961653560065
 20
1.158287835518606
 30
0.0
 10
1.692940159390179
 20
1.158253669603322
 30
0.0
 10
1.690732939109616
 20
1.158179844707065
 30
0.0
 10
1.687233717306634
 20
1.157178532346083
 30
0.0
 10
1.68336337635436
 20
1.155325400202359
 30
0.0
 10
1.679518017158554
 20
1.1525980931197
 30
0.0
 10
1.675731487991948
 20
1.14911103361458
 30
0.0
 10
1.672092721837274
 20
1.144899548764036
 30
0.0
 10
1.669444096008996
 20
1.141379004852964
 30
0.0
 10
1.668159030353463
 20
1.139184694354395
 30
0.0
 10
1.66794209471237
 20
1.138814266467916
 30
0.0
  0
SPLINE
  5
C0
330
1F
100
AcDbEntity
  8
0
  6
Continuous
 62
     7
370
    25
100
AcDbSpline
210
0.0
220
0.0
230
1.0
 70
     8
 71
     3
 72
    15
 73
    11
 74
     0
 42
0.00000001
 43
0.00000001
 40
0.0
 40
0.0
 40
0.0
 40
0.0
 40
0.1914331840096275
 40
0.3653968643489705
 40
0.5140266215778226
 40
0.6394552458424483
 40
0.74641055253689
 40
0.8395892814668243
 40
0.9230761246622784
 40
0.9999999999999999
 40
0.9999999999999999
 40
0.9999999999999999
 40
0.9999999999999999
 10
1.714118843443936
 20
1.1337925
 30
0.0
 10
1.713616650382756
 20
1.13591464948345
 30
0.0
 10
1.712658092592463
 20
1.139965288723162
 30
0.0
 10
1.710458168223138
 20
1.145411700266067
 30
0.0
 10
1.707917895278939
 20
1.149855716306168
 30
0.0
 10
1.705153315465644
 20
1.15322934510054
 30
0.0
 10
1.702298261238623
 20
1.155635853035073
 30
0.0
 10
1.699443934301503
 20
1.157189943468248
 30
0.0
 10
1.696666235595845
 20
1.158081652733169
 30
0.0
 10
1.694838251143113
 20
1.158221008434425
 30
0.0
 10
1.693961653560065
 20
1.158287835518606
 30
0.0
  0
LWPOLYLINE
  5
C4
330
1F
100
AcDbEntity
  8
0
  6
Continuous
 62
     7
370
    25
100
AcDbPolyline
 90
       33
 70
   128
 43
0.0
 10
2.6782116003
 20
0.1896404376
 10
2.6779982321
 20
0.18954504
 10
2.6774508734
 20
0.1895541034
 10
2.6765747957
 20
0.1896675403
 10
2.6753784361
 20
0.1898842585
 10
2.6738733161
 20
0.1902021707
 10
2.6720739309
 20
0.1906182154
 10
2.6699976095
 20
0.1911283857
 10
2.6676643481
 20
0.1917277684
 10
2.6650966173
 20
0.1924105912
 10
2.6623191456
 20
0.1931702782
 10
2.6593586817
 20
0.193999513
 10
2.6562437364
 20
0.1948903097
 10
2.6530043084
 20
0.1958340896
 10
2.6496715952
 20
0.1968217633
 10
2.6462776925
 20
0.1978438192
 10
2.6428552855
 20
0.1988904142
 10
2.6394373339
 20
0.1999514691
 10
2.6360567544
 20
0.2010167653
 10
2.6327461039
 20
0.2020760435
 10
2.6295372657
 20
0.2031191022
 10
2.6264611427
 20
0.2041358962
 10
2.6235473596
 20
0.2051166332
 10
2.6208239777
 20
0.2060518681
 10
2.6183172248
 20
0.2069325943
 10
2.6160512422
 20
0.2077503297
 10
2.6140478525
 20
0.2084971991
 10
2.6123263495
 20
0.2091660098
 10
2.6109033123
 20
0.2097503208
 10
2.6097924454
 20
0.2102445048
 10
2.6090044471
 20
0.2106438026
 10
2.6085469062
 20
0.2109443687
 10
2.6084242292
 20
0.2111433085
  0
SPLINE
  5
C5
330
1F
100
AcDbEntity
  8
0
  6
Continuous
 62
     7
370
    25
100
AcDbSpline
210
0.0
220
0.0
230
1.0
 70
    24
 71
     3
 72
    15
 73
    11
 74
     0
 42
0.00000001
 43
0.00000001
 40
0.0
 40
0.0
 40
0.0
 40
0.0
 40
0.1102937415745399
 40
0.228335536135702
 40
0.3566763267698764
 40
0.4973281989460708
 40
0.6512421488052971
 40
0.8180267532052422
 40
0.9959442067122141
 40
1.0
 40
1.0
 40
1.0
 40
1.0
 10
1.957811103825545
 20
0.4918075000000001
 30
0.0
 10
1.957880783019998
 20
0.491859866180769
 30
0.0
 10
1.958025036320283
 20
0.4919682772274028
 30
0.0
 10
1.959215486454363
 20
0.4928629392195109
 30
0.0
 10
1.961185274540171
 20
0.4943432990283182
 30
0.0
 10
1.96402589544803
 20
0.496478118024507
 30
0.0
 10
1.967677013993592
 20
0.4992220523547937
 30
0.0
 10
1.972102161712952
 20
0.5025476947825089
 30
0.0
 10
1.975360206632277
 20
0.5049962214989673
 30
0.0
 10
1.977168307775974
 20
0.5063550683123199
 30
0.0
 10
1.977208606471587
 20
0.5063853540926849
 30
0.0
  0
SPLINE
  5
C6
330
1F
100
AcDbEntity
  8
0
  6
Continuous
 62
     7
370
    25
100
AcDbSpline
210
0.0
220
0.0
230
1.0
 70
    24
 71
     3
 72
    17
 73
    13
 74
     0
 42
0.00000001
 43
0.00000001
 40
0.0
 40
0.0
 40
0.0
 40
0.0
 40
0.0951773037986137
 40
0.2094896139403964
 40
0.3244384493120299
 40
0.4379946599430531
 40
0.5483484933476254
 40
0.6482457229966773
 40
0.7434129150149487
 40
0.833633927591077
 40
0.9190481316560093
 40
1.0
 40
1.0
 40
1.0
 40
1.0
 10
2.010664971795049
 20
0.5226385299522888
 30
0.0
 10
2.011752046517269
 20
0.5211920526678648
 30
0.0
 10
2.014144747873509
 20
0.5180082897769902
 30
0.0
 10
2.017739764414107
 20
0.5132247089827644
 30
0.0
 10
2.021375187504105
 20
0.5083873626518592
 30
0.0
 10
2.024722663770151
 20
0.5039331625127079
 30
0.0
 10
2.027605140376479
 20
0.5000976976189766
 30
0.0
 10
2.029947899517566
 20
0.4969803885589918
 30
0.0
 10
2.031729124559392
 20
0.4946102648602415
 30
0.0
 10
2.032961870364125
 20
0.4929699555350683
 30
0.0
 10
2.03370269399204
 20
0.4919842049443887
 30
0.0
 10
2.033792025697049
 20
0.4918653388909044
 30
0.0
 10
2.033835493504625
 20
0.4918075
 30
0.0
  0
SPLINE
  5
D1
330
1F
100
AcDbEntity
  8
0
  6
Continuous
 62
     7
370
    25
100
AcDbSpline
210
0.0
220
0.0
230
1.0
 70
    24
 71
     3
 72
    15
 73
    11
 74
     0
 42
0.00000001
 43
0.00000001
 40
0.0
 40
0.0
 40
0.0
 40
0.0
 40
0.087070131870001
 40
0.1827431534571247
 40
0.289104074300545
 40
0.4086525552553127
 40
0.5441426969035399
 40
0.6982736129533048
 40
0.8732334983596233
 40
1.0
 40
1.0
 40
1.0
 40
1.0
 10
1.962631824221555
 20
0.5648325
 30
0.0
 10
1.96266410521124
 20
0.5648055674192551
 30
0.0
 10
1.962731856686116
 20
0.5647490412072198
 30
0.0
 10
1.963315020878042
 20
0.5642624973670364
 30
0.0
 10
1.964359726817078
 20
0.5633908813685239
 30
0.0
 10
1.966006301012104
 20
0.5620171164098943
 30
0.0
 10
1.968341956621955
 20
0.560068439063962
 30
0.0
 10
1.971471072974103
 20
0.5574577638760231
 30
0.0
 10
1.974880600394974
 20
0.5546131369467071
 30
0.0
 10
1.977373899386582
 20
0.5525329350363374
 30
0.0
 10
1.978421427227296
 20
0.5516589646770848
 30
0.0
  0
SPLINE
  5
D2
330
1F
100
AcDbEntity
  8
0
  6
Continuous
 62
     7
370
    25
100
AcDbSpline
210
0.0
220
0.0
230
1.0
 70
    24
 71
     3
 72
    19
 73
    15
 74
     0
 42
0.00000001
 43
0.00000001
 40
0.0
 40
0.0
 40
0.0
 40
0.0
 40
0.0562981962953108
 40
0.1897843979360875
 40
0.3157567098517918
 40
0.4317072297674076
 40
0.5362742674498047
 40
0.6291857294807063
 40
0.7110360846126018
 40
0.7829873614557138
 40
0.8464729091473168
 40
0.9029552772945326
 40
0.9537618967200575
 40
1.0
 40
1.0
 40
1.0
 40
1.0
 10
2.010673411996879
 20
0.5247505832287537
 30
0.0
 10
2.011662997297722
 20
0.5239249553196186
 30
0.0
 10
2.014998945212321
 20
0.5211417170284219
 30
0.0
 10
2.020484543548656
 20
0.516564988694927
 30
0.0
 10
2.02686213921956
 20
0.5112440517584254
 30
0.0
 10
2.032522793066208
 20
0.5065212716244042
 30
0.0
 10
2.037357486794091
 20
0.5024876041169571
 30
0.0
 10
2.041325381370126
 20
0.4991771219385276
 30
0.0
 10
2.044447016362698
 20
0.4965726885765896
 30
0.0
 10
2.046784322398571
 20
0.4946226342520561
 30
0.0
 10
2.048430530983259
 20
0.4932491743283703
 30
0.0
 10
2.049475318751822
 20
0.4923774900580883
 30
0.0
 10
2.05005846464778
 20
0.4918909614825417
 30
0.0
 10
2.050126218306193
 20
0.4918344334487447
 30
0.0
 10
2.05015850033625
 20
0.4918075
 30
0.0
  0
SPLINE
  5
D4
330
1F
100
AcDbEntity
  8
0
  6
Continuous
 62
     7
370
    25
100
AcDbSpline
210
0.0
220
0.0
230
1.0
 70
    24
 71
     3
 72
    24
 73
    20
 74
     0
 42
0.00000001
 43
0.00000001
 40
0.0
 40
0.0
 40
0.0
 40
0.0
 40
0.0293654276979046
 40
0.0615609369658562
 40
0.0971897250912195
 40
0.136968718818319
 40
0.1816856802569055
 40
0.2321126383202356
 40
0.2888739990624412
 40
0.3522812146729085
 40
0.4221631322298383
 40
0.4977376955557543
 40
0.5775774886995475
 40
0.6597078284783835
 40
0.7418381682572176
 40
0.821677961401011
 40
0.8972525247269267
 40
0.9671344422838564
 40
1.0
 40
1.0
 40
1.0
 40
1.0
 10
-0.168401728411507
 20
0.4918075000000001
 30
0.0
 10
-0.1684411823376996
 20
0.4918075
 30
0.0
 10
-0.1685238925467379
 20
0.4918074999999999
 30
0.0
 10
-0.1692358530949046
 20
0.4918075
 30
0.0
 10
-0.1705115967865021
 20
0.4918074999999999
 30
0.0
 10
-0.1725222047663615
 20
0.4918075
 30
0.0
 10
-0.1753786501911895
 20
0.4918075
 30
0.0
 10
-0.1791961130642276
 20
0.4918075000000001
 30
0.0
 10
-0.1840514304177144
 20
0.4918075000000002
 30
0.0
 10
-0.1899699492335236
 20
0.4918074999999999
 30
0.0
 10
-0.1969024628514395
 20
0.4918075000000002
 30
0.0
 10
-0.2047115655133651
 20
0.4918075
 30
0.0
 10
-0.2131691733739689
 20
0.4918075000000002
 30
0.0
 10
-0.221973168267582
 20
0.4918075000000003
 30
0.0
 10
-0.2307747628436508
 20
0.4918075
 30
0.0
 10
-0.2392392479718317
 20
0.4918075
 30
0.0
 10
-0.2470251671045616
 20
0.4918075000000001
 30
0.0
 10
-0.2530095515194564
 20
0.4918075000000001
 30
0.0
 10
-0.256162801525891
 20
0.4918075000000002
 30
0.0
 10
-0.257171423098387
 20
0.4918075000000002
 30
0.0
  0
SPLINE
  5
D7
330
1F
100
AcDbEntity
  8
0
  6
Continuous
 62
     7
370
    25
100
AcDbSpline
210
0.0
220
0.0
230
1.0
 70
    24
 71
     3
 72
    22
 73
    18
 74
     0
 42
0.00000001
 43
0.00000001
 40
0.0
 40
0.0
 40
0.0
 40
0.0
 40
0.125
 40
0.125
 40
0.25
 40
0.25
 40
0.375
 40
0.375
 40
0.5
 40
0.5
 40
0.625
 40
0.625
 40
0.75
 40
0.75
 40
0.875
 40
0.875
 40
1.0
 40
1.0
 40
1.0
 40
1.0
 10
1.638264743115695
 20
1.0607675
 30
0.0
 10
1.638264743115695
 20
1.0607675
 30
0.0
 10
1.638502001294171
 20
1.060958765154716
 30
0.0
 10
1.639539770272745
 20
1.061795360316664
 30
0.0
 10
1.640341190621082
 20
1.062441423554193
 30
0.0
 10
1.642548431331494
 20
1.064220785760724
 30
0.0
 10
1.643954772481474
 20
1.06535450456174
 30
0.0
 10
1.64734049619785
 20
1.068083898231518
 30
0.0
 10
1.649319647139628
 20
1.069679386376605
 30
0.0
 10
1.653741608749201
 20
1.073244140927248
 30
0.0
 10
1.656183423925174
 20
1.075212604819274
 30
0.0
 10
1.661362124661598
 20
1.079387402939776
 30
0.0
 10
1.664097665615519
 20
1.081592653216676
 30
0.0
 10
1.669673042106565
 20
1.086087230617568
 30
0.0
 10
1.672511747548041
 20
1.088375646717455
 30
0.0
 10
1.678119720124244
 20
1.092896501380149
 30
0.0
 10
1.680888417092264
 20
1.095128480304328
 30
0.0
 10
1.683557307014795
 20
1.09728
 30
0.0
  0
SPLINE
  5
D8
330
1F
100
AcDbEntity
  8
0
  6
Continuous
 62
     7
370
    25
100
AcDbSpline
210
0.0
220
0.0
230
1.0
 70
    24
 71
     3
 72
    22
 73
    18
 74
     0
 42
0.00000001
 43
0.00000001
 40
0.0
 40
0.0
 40
0.0
 40
0.0
 40
0.125
 40
0.125
 40
0.25
 40
0.25
 40
0.375
 40
0.375
 40
0.5
 40
0.5
 40
0.625
 40
0.625
 40
0.75
 40
0.75
 40
0.875
 40
0.875
 40
1.0
 40
1.0
 40
1.0
 40
1.0
 10
1.683557307014795
 20
1.09728
 30
0.0
 10
1.685291749848793
 20
1.095128480304327
 30
0.0
 10
1.687091054711522
 20
1.092896501380148
 30
0.0
 10
1.690735531677747
 20
1.088375646717455
 30
0.0
 10
1.692580333244585
 20
1.086087230617568
 30
0.0
 10
1.69620362685445
 20
1.081592653216677
 30
0.0
 10
1.697981384477416
 20
1.079387402939776
 30
0.0
 10
1.70134688872916
 20
1.075212604819274
 30
0.0
 10
1.702933761532778
 20
1.073244140927247
 30
0.0
 10
1.705807480512791
 20
1.069679386376606
 30
0.0
 10
1.707093679744685
 20
1.068083898231518
 30
0.0
 10
1.709293974402099
 20
1.06535450456174
 30
0.0
 10
1.710207919300743
 20
1.064220785760723
 30
0.0
 10
1.711642348199726
 20
1.062441423554192
 30
0.0
 10
1.712163170646715
 20
1.061795360316664
 30
0.0
 10
1.712837589982275
 20
1.060958765154716
 30
0.0
 10
1.712991777962825
 20
1.0607675
 30
0.0
 10
1.712991777962825
 20
1.0607675
 30
0.0
  0
SPLINE
  5
DA
330
1F
100
AcDbEntity
  8
0
  6
Continuous
 62
     7
370
    25
100
AcDbSpline
210
0.0
220
0.0
230
1.0
 70
    24
 71
     3
 72
    50
 73
    46
 74
     0
 42
0.00000001
 43
0.00000001
 40
0.0
 40
0.0
 40
0.0
 40
0.0
 40
0.0625000000000005
 40
0.0625000000000005
 40
0.1250000000000011
 40
0.1250000000000011
 40
0.1875000000000016
 40
0.1875000000000016
 40
0.2500000000000021
 40
0.2500000000000021
 40
0.3125000000000027
 40
0.3125000000000027
 40
0.3437500000000022
 40
0.3437500000000022
 40
0.3750000000000017
 40
0.3750000000000017
 40
0.4062500000000013
 40
0.4062500000000013
 40
0.4375000000000008
 40
0.4375000000000008
 40
0.4687500000000003
 40
0.4687500000000003
 40
0.4999999999999999
 40
0.4999999999999999
 40
0.5312499999999994
 40
0.5312499999999994
 40
0.5624999999999991
 40
0.5624999999999991
 40
0.5937499999999987
 40
0.5937499999999987
 40
0.6249999999999982
 40
0.6249999999999982
 40
0.6562499999999979
 40
0.6562499999999979
 40
0.6874999999999974
 40
0.6874999999999974
 40
0.749999999999998
 40
0.749999999999998
 40
0.8124999999999986
 40
0.8124999999999986
 40
0.874999999999999
 40
0.874999999999999
 40
0.9374999999999996
 40
0.9374999999999996
 40
1.0
 40
1.0
 40
1.0
 40
1.0
 10
1.589436549404955
 20
0.4918075
 30
0.0
 10
1.589436549404955
 20
0.4918075000000001
 30
0.0
 10
1.589360479427566
 20
0.491901862322813
 30
0.0
 10
1.588991655294768
 20
0.49235937661524
 30
0.0
 10
1.588698725333191
 20
0.4927227466666665
 30
0.0
 10
1.587819615800877
 20
0.4938132533333334
 30
0.0
 10
1.587232958788596
 20
0.4945409821992174
 30
0.0
 10
1.585687100953174
 20
0.4964585683625806
 30
0.0
 10
1.584727034053271
 20
0.4976495000000001
 30
0.0
 10
1.582372276377428
 20
0.5005704999999999
 30
0.0
 10
1.580976463459736
 20
0.5023019603427785
 30
0.0
 10
1.578546144972753
 20
0.5053166910614876
 30
0.0
 10
1.577680430431183
 20
0.5063905816795635
 30
0.0
 10
1.575843408701064
 20
0.5086693471460596
 30
0.0
 10
1.574872088001604
 20
0.5098742387543255
 30
0.0
 10
1.572835100392743
 20
0.5124010553633218
 30
0.0
 10
1.571769439943227
 20
0.5137229723507772
 30
0.0
 10
1.569560824223533
 20
0.5164626880265811
 30
0.0
 10
1.56841789878952
 20
0.5178804497041419
 30
0.0
 10
1.566077074591049
 20
0.5207841656804733
 30
0.0
 10
1.564879227998253
 20
0.5222700552620025
 30
0.0
 10
1.562454913898761
 20
0.5252773377341067
 30
0.0
 10
1.561228514746424
 20
0.5267986458333334
 30
0.0
 10
1.558775642167421
 20
0.5298413541666669
 30
0.0
 10
1.557549243015085
 20
0.5313626622658937
 30
0.0
 10
1.555124928915593
 20
0.5343699447379976
 30
0.0
 10
1.553927082322796
 20
0.5358558343195265
 30
0.0
 10
1.551586258124325
 20
0.5387595502958578
 30
0.0
 10
1.550443332690312
 20
0.5401773119734186
 30
0.0
 10
1.548234716970619
 20
0.5429170276492228
 30
0.0
 10
1.547169056521102
 20
0.5442389446366781
 30
0.0
 10
1.545132068912241
 20
0.5467657612456748
 30
0.0
 10
1.544160748212782
 20
0.5479706528539409
 30
0.0
 10
1.542323726482663
 20
0.5502494183204368
 30
0.0
 10
1.541458011941092
 20
0.5513233089385127
 30
0.0
 10
1.539027693454108
 20
0.5543380396572217
 30
0.0
 10
1.537631880536418
 20
0.5560695
 30
0.0
 10
1.535277122860575
 20
0.5589905000000001
 30
0.0
 10
1.534317055960672
 20
0.5601814316374193
 30
0.0
 10
1.532771198125249
 20
0.5620990178007826
 30
0.0
 10
1.532184541112969
 20
0.5628267466666667
 30
0.0
 10
1.531305431580654
 20
0.5639172533333332
 30
0.0
 10
1.531012501619076
 20
0.5642806233847598
 30
0.0
 10
1.530643677486279
 20
0.564738137677187
 30
0.0
 10
1.53056760750889
 20
0.5648324999999997
 30
0.0
 10
1.53056760750889
 20
0.5648325
 30
0.0
  0
LWPOLYLINE
  5
DC
330
1F
100
AcDbEntity
  8
0
  6
Continuous
 62
     7
370
    25
100
AcDbPolyline
 90
        3
 70
   128
 43
0.0
 10
2.6778122517
 20
0.1895361031
 10
2.6781641059
 20
0.1895883766
 10
2.6782116251
 20
0.1896405182
  0
LWPOLYLINE
  5
DD
330
1F
100
AcDbEntity
  8
0
  6
Continuous
 62
     7
370
    25
100
AcDbPolyline
 90
       32
 70
   128
 43
0.0
 10
2.6084242345
 20
0.2111433259
 10
2.6084554571
 20
0.2110390525
 10
2.6087749352
 20
0.2107801973
 10
2.6094270811
 20
0.2104212968
 10
2.6104056143
 20
0.2099658075
 10
2.6117011109
 20
0.209418116
 10
2.6133010946
 20
0.2087834968
 10
2.6151901567
 20
0.2080680617
 10
2.6173501045
 20
0.2072787007
 10
2.6197601365
 20
0.2064230158
 10
2.6223970427
 20
0.2055092477
 10
2.6252354284
 20
0.2045461964
 10
2.6282479584
 20
0.2035431368
 10
2.6314056202
 20
0.2025097288
 10
2.634678004
 20
0.2014559246
 10
2.6380335948
 20
0.2003918731
 10
2.6414400765
 20
0.1993278216
 10
2.6448646428
 20
0.1982740174
 10
2.6482743133
 20
0.1972406094
 10
2.651636251
 20
0.1962375498
 10
2.6549180785
 20
0.1952744985
 10
2.6580881901
 20
0.1943607304
 10
2.6611160559
 20
0.1935050455
 10
2.6639725158
 20
0.1927156845
 10
2.6666300607
 20
0.1920002494
 10
2.6690630968
 20
0.1913656302
 10
2.6712481928
 20
0.1908179387
 10
2.6731643049
 20
0.1903624493
 10
2.67479298
 20
0.1900035489
 10
2.676118533
 20
0.1897446936
 10
2.6771281981
 20
0.1895883766
 10
2.6778122517
 20
0.1895361031
  0
LWPOLYLINE
  5
DF
330
1F
100
AcDbEntity
  8
0
  6
Continuous
 62
     7
370
    25
100
AcDbPolyline
 90
       33
 70
   128
 43
0.0
 10
2.512909149
 20
0.1306350241
 10
2.5125041922
 20
0.1304660658
 10
2.5120531987
 20
0.1299440499
 10
2.511652785
 20
0.129079611
 10
2.5113068073
 20
0.1278810742
 10
2.5110185976
 20
0.1263599821
 10
2.5107909315
 20
0.1245309836
 10
2.5106260015
 20
0.122411693
 10
2.510525396
 20
0.1200225201
 10
2.5104900839
 20
0.1173864741
 10
2.5105204052
 20
0.1145289415
 10
2.510616068
 20
0.1114774418
 10
2.5107761509
 20
0.1082613628
 10
2.5109991123
 20
0.1049116769
 10
2.511282805
 20
0.1014606436
 10
2.5116244968
 20
0.0979414981
 10
2.512020897
 20
0.0943881317
 10
2.5124681881
 20
0.0908347654
 10
2.5129620624
 20
0.0873156199
 10
2.5134977637
 20
0.0838645866
 10
2.5140701328
 20
0.0805149007
 10
2.5146736576
 20
0.0772988217
 10
2.5153025257
 20
0.074247322
 10
2.5159506808
 20
0.0713897894
 10
2.5166118809
 20
0.0687537433
 10
2.5172797581
 20
0.0663645705
 10
2.5179478806
 20
0.0642452798
 10
2.5186098138
 20
0.0624162813
 10
2.5192591831
 20
0.0608951892
 10
2.5198897346
 20
0.0596966525
 10
2.5204953957
 20
0.0588322136
 10
2.5210703338
 20
0.0583101977
 10
2.5216090116
 20
0.058135632
  0
LWPOLYLINE
  5
E1
330
1F
100
AcDbEntity
  8
0
  6
Continuous
 62
     7
370
    25
100
AcDbPolyline
 90
       17
 70
   128
 43
0.0
 10
2.5129100147
 20
0.1306351296
 10
2.5125041922
 20
0.1304660658
 10
2.5120531987
 20
0.1299440499
 10
2.511652785
 20
0.129079611
 10
2.5113068073
 20
0.1278810742
 10
2.5110185976
 20
0.1263599821
 10
2.5107909315
 20
0.1245309836
 10
2.5106260015
 20
0.122411693
 10
2.510525396
 20
0.1200225201
 10
2.5104900839
 20
0.1173864741
 10
2.5105204052
 20
0.1145289415
 10
2.510616068
 20
0.1114774418
 10
2.5107761509
 20
0.1082613628
 10
2.5109991123
 20
0.1049116769
 10
2.511282805
 20
0.1014606436
 10
2.5116244968
 20
0.0979414981
 10
2.512020897
 20
0.0943881317
  0
LWPOLYLINE
  5
E2
330
1F
100
AcDbEntity
  8
0
  6
Continuous
 62
     7
370
    25
100
AcDbPolyline
 90
       18
 70
   128
 43
0.0
 10
2.512020897
 20
0.0943881317
 10
2.5124681881
 20
0.0908347654
 10
2.5129620624
 20
0.0873156199
 10
2.5134977637
 20
0.0838645866
 10
2.5140701328
 20
0.0805149007
 10
2.5146736576
 20
0.0772988217
 10
2.5153025257
 20
0.074247322
 10
2.5159506808
 20
0.0713897894
 10
2.5166118809
 20
0.0687537433
 10
2.5172797581
 20
0.0663645705
 10
2.5179478806
 20
0.0642452798
 10
2.5186098138
 20
0.0624162813
 10
2.5192591831
 20
0.0608951892
 10
2.5198897346
 20
0.0596966525
 10
2.5204953957
 20
0.0588322136
 10
2.5210703338
 20
0.0583101977
 10
2.5216090116
 20
0.058135632
 10
2.5217004191
 20
0.0581411339
  0
SPLINE
  5
E7
330
1F
100
AcDbEntity
  8
0
  6
Continuous
 62
     7
370
    25
100
AcDbSpline
210
0.0
220
0.0
230
1.0
 70
     8
 71
     3
 72
    15
 73
    11
 74
     0
 42
0.00000001
 43
0.00000001
 40
0.0
 40
0.0
 40
0.0
 40
0.0
 40
0.1075775856355413
 40
0.2303391527863031
 40
0.3703330448425308
 40
0.5291996898111723
 40
0.6678076153553448
 40
0.8182078504698312
 40
0.9792707452816951
 40
1.0
 40
1.0
 40
1.0
 40
1.0
 10
2.78087156393402
 20
0.52832
 30
0.0
 10
2.780826880989598
 20
0.5296746501175994
 30
0.0
 10
2.780731208350162
 20
0.5325751517282867
 30
0.0
 10
2.77991797188677
 20
0.5370166757577929
 30
0.0
 10
2.778435692623639
 20
0.5417856157843713
 30
0.0
 10
2.776254791932111
 20
0.5463230365091876
 30
0.0
 10
2.77348487940633
 20
0.5505324155903095
 30
0.0
 10
2.770182111508564
 20
0.5542390566381121
 30
0.0
 10
2.767522862732652
 20
0.5567567900595557
 30
0.0
 10
2.765842405476495
 20
0.5578064921855256
 30
0.0
 10
2.765650787595325
 20
0.5579261868082241
 30
0.0
  0
SPLINE
  5
E8
330
1F
100
AcDbEntity
  8
0
  6
Continuous
 62
     7
370
    25
100
AcDbSpline
210
0.0
220
0.0
230
1.0
 70
     8
 71
     3
 72
    16
 73
    12
 74
     0
 42
0.00000001
 43
0.00000001
 40
0.0
 40
0.0
 40
0.0
 40
0.0
 40
0.0569202210080987
 40
0.1832880960727861
 40
0.301241559098013
 40
0.4115328131630553
 40
0.5479962550407651
 40
0.674033924822968
 40
0.7908805960814079
 40
0.8993507410589395
 40
1.0
 40
1.0
 40
1.0
 40
1.0
 10
2.761081571102683
 20
0.4959628607461538
 30
0.0
 10
2.761734762057163
 20
0.4962755391430089
 30
0.0
 10
2.763838094129637
 20
0.4972823909617069
 30
0.0
 10
2.767088448397004
 20
0.4996332305291257
 30
0.0
 10
2.770639664571091
 20
0.5028233559925336
 30
0.0
 10
2.773873889467747
 20
0.5066271151282319
 30
0.0
 10
2.776629795296264
 20
0.5109564476622126
 30
0.0
 10
2.778734235149475
 20
0.5156834027676122
 30
0.0
 10
2.780043502441352
 20
0.5201931756527061
 30
0.0
 10
2.780754108729758
 20
0.5244005825831032
 30
0.0
 10
2.780833400682906
 20
0.5270465126987034
 30
0.0
 10
2.78087156393402
 20
0.52832
 30
0.0
  0
SPLINE
  5
EA
330
1F
100
AcDbEntity
  8
0
  6
Continuous
 62
     7
370
    25
100
AcDbSpline
210
0.0
220
0.0
230
1.0
 70
     8
 71
     3
 72
    21
 73
    17
 74
     0
 42
0.00000001
 43
0.00000001
 40
0.0
 40
0.0
 40
0.0
 40
0.0
 40
0.0218616122264513
 40
0.1056042700360438
 40
0.1903781408099889
 40
0.2751316640502331
 40
0.3588166222030606
 40
0.440454652853228
 40
0.5191947998909254
 40
0.5943552257405259
 40
0.6654445563761386
 40
0.7449436736513857
 40
0.8179668741803878
 40
0.8846029104593601
 40
0.9451423143915691
 40
1.0
 40
1.0
 40
1.0
 40
1.0
 10
-0.4469595607927856
 20
0.4719341394039123
 30
0.0
 10
-0.4470841536111807
 20
0.4723934552247251
 30
0.0
 10
-0.4476860092063704
 20
0.4746122171106515
 30
0.0
 10
-0.4486402797715356
 20
0.4789971263873384
 30
0.0
 10
-0.4497655636641869
 20
0.4849167881943523
 30
0.0
 10
-0.4506668815320549
 20
0.4909038455981465
 30
0.0
 10
-0.4513242444970564
 20
0.4966741575748693
 30
0.0
 10
-0.4517231351052338
 20
0.5020247455331673
 30
0.0
 10
-0.4518736186853112
 20
0.5067919297636141
 30
0.0
 10
-0.4518009365996347
 20
0.5108798736295074
 30
0.0
 10
-0.4515254946487983
 20
0.5144564889892164
 30
0.0
 10
-0.4510529651451307
 20
0.5173991239077278
 30
0.0
 10
-0.4504047021432345
 20
0.5196311851359804
 30
0.0
 10
-0.4496675284071712
 20
0.5210798643341774
 30
0.0
 10
-0.4488949476605073
 20
0.5219327317214075
 30
0.0
 10
-0.4483367288277131
 20
0.5221069381606008
 30
0.0
 10
-0.448071361708386
 20
0.5221897527455289
 30
0.0
  0
SPLINE
  5
ED
330
1F
100
AcDbEntity
  8
0
  6
Continuous
 62
     7
370
    25
100
AcDbSpline
210
0.0
220
0.0
230
1.0
 70
     8
 71
     3
 72
    24
 73
    20
 74
     0
 42
0.00000001
 43
0.00000001
 40
0.0
 40
0.0
 40
0.0
 40
0.0
 40
0.0454640969791258
 40
0.0909139488172853
 40
0.1363532865431791
 40
0.1817858613097613
 40
0.227215443466408
 40
0.2726458216628438
 40
0.3180808019837934
 40
0.3635242071132771
 40
0.4089798755275377
 40
0.4544516607153754
 40
0.4999434304247988
 40
0.6249512018240385
 40
0.7499434639706221
 40
0.8124472115865424
 40
0.8749504889807911
 40
0.9392563967780362
 40
1.0
 40
1.0
 40
1.0
 40
1.0
 10
0.0309718175937888
 20
0.0021791567130385
 30
0.0
 10
0.0315216536871535
 20
0.0021142700468776
 30
0.0
 10
0.0326211535952462
 20
0.0019845170453172
 30
0.0
 10
0.0342714929489751
 20
0.0018011074936652
 30
0.0
 10
0.0359223418834232
 20
0.0016259413710336
 30
0.0
 10
0.0375738849366499
 20
0.0014598135105054
 30
0.0
 10
0.0392261850273786
 20
0.0013025055594477
 30
0.0
 10
0.0408793393321558
 20
0.0011540769817714
 30
0.0
 10
0.0425334372855559
 20
0.0010145191749392
 30
0.0
 10
0.0441885717259888
 20
0.0008838478582793
 30
0.0
 10
0.0458448353400367
 20
0.0007620789191391
 30
0.0
 10
0.0475023228185419
 20
0.0006492322215518
 30
0.0
 10
0.0501272921334427
 20
0.0004848283216657
 30
0.0
 10
0.0537210104473456
 20
0.0002964417443048
 30
0.0
 10
0.0575241720984131
 20
0.0001539675343203
 30
0.0
 10
0.060567648943849
 20
0.0000741609219705
 30
0.0
 10
0.0628727223526104
 20
0.0000309679471844
 30
0.0
 10
0.0651566363675991
 20
0.0000055696215676
 30
0.0
 10
0.0666794933014726
 20
0.00000182094414
 30
0.0
 10
0.0674192308390373
 20
0.0000000000000003
 30
0.0
  0
SPLINE
  5
F0
330
1F
100
AcDbEntity
  8
0
  6
Continuous
 62
     7
370
    25
100
AcDbSpline
210
0.0
220
0.0
230
1.0
 70
     8
 71
     3
 72
    44
 73
    40
 74
     0
 42
0.00000001
 43
0.00000001
 40
0.0
 40
0.0
 40
0.0
 40
0.0
 40
0.0117204507766961
 40
0.0230121235568486
 40
0.0338748029734437
 40
0.0443083287333116
 40
0.0543125902140227
 40
0.0638875212553413
 40
0.0730330951529993
 40
0.0817493198612735
 40
0.0900362334101485
 40
0.0978938995420267
 40
0.1053224035726094
 40
0.1123218484805188
 40
0.1188923512306906
 40
0.1250340393377673
 40
0.1913025518744042
 40
0.249944366104154
 40
0.3149908919974207
 40
0.3746985127176556
 40
0.4388843263945241
 40
0.498474302879335
 40
0.5634528424134695
 40
0.6238633011298493
 40
0.6887497409990279
 40
0.7490736333687649
 40
0.7821275313931614
 40
0.8140231783296261
 40
0.8448218115281076
 40
0.8745870327776127
 40
0.8892457476467724
 40
0.9037033725284386
 40
0.9179684669342223
 40
0.9320496431241083
 40
0.9459555513746489
 40
0.9596948650247703
 40
0.973276265368264
 40
0.986708426471113
 40
1.0
 40
1.0
 40
1.0
 40
1.0
 10
0.0674192308390373
 20
-0.0365125000000001
 30
0.0
 10
0.0672127291629557
 20
-0.0365114913969102
 30
0.0
 10
0.0668072804156997
 20
-0.0365095110892101
 30
0.0
 10
0.0662106320220144
 20
-0.0364939370773985
 30
0.0
 10
0.0656368719994419
 20
-0.0364704284773624
 30
0.0
 10
0.0650860576047011
 20
-0.036439167998361
 30
0.0
 10
0.0645582212581255
 20
-0.0364014078329511
 30
0.0
 10
0.0640533840830155
 20
-0.0363580778038333
 30
0.0
 10
0.0635715544368198
 20
-0.0363101360528718
 30
0.0
 10
0.0631127301817809
 20
-0.0362584803731292
 30
0.0
 10
0.0626768998206364
 20
-0.0362039701809997
 30
0.0
 10
0.0622640442257442
 20
-0.036147420822637
 30
0.0
 10
0.0618741367840551
 20
-0.0360896049188891
 30
0.0
 10
0.0615071484858201
 20
-0.0360312519203362
 30
0.0
 10
0.0611630358698257
 20
-0.035973048549131
 30
0.0
 10
0.0597859830645476
 20
-0.0357269539522727
 30
0.0
 10
0.0575155603335552
 20
-0.0351966391398182
 30
0.0
 10
0.054282410136278
 20
-0.0341221135579605
 30
0.0
 10
0.051235314197101
 20
-0.0327890597320869
 30
0.0
 10
0.048195913911222
 20
-0.0311059967522349
 30
0.0
 10
0.0453639608307238
 20
-0.0291686479937664
 30
0.0
 10
0.0426010459936284
 20
-0.0268616125234047
 30
0.0
 10
0.0400715151385639
 20
-0.0242868946463808
 30
0.0
 10
0.037691117725092
 20
-0.0213131839819576
 30
0.0
 10
0.0356254791795602
 20
-0.0180954387816191
 30
0.0
 10
0.0341232890555848
 20
-0.0150890364345504
 30
0.0
 10
0.0331147188529543
 20
-0.0125645754104898
 30
0.0
 10
0.03244706402694
 20
-0.0105616044985188
 30
0.0
 10
0.0319057994635785
 20
-0.0085642707352954
 30
0.0
 10
0.0315523154165543
 20
-0.0068943281220074
 30
0.0
 10
0.031328735455829
 20
-0.0055651965225003
 30
0.0
 10
0.0311902077578078
 20
-0.0045761195700371
 30
0.0
 10
0.0310795755515647
 20
-0.003591691730842
 30
0.0
 10
0.0309962161331612
 20
-0.0026126796678004
 30
0.0
 10
0.030939570138226
 20
-0.001639834429578
 30
0.0
 10
0.0309088636595012
 20
-0.000673869894539
 30
0.0
 10
0.030904116785646
 20
0.0002845280320793
 30
0.0
 10
0.0309224538155017
 20
0.0012347151006172
 30
0.0
 10
0.030955420811684
 20
0.0018654488919004
 30
0.0
 10
0.0309718175937888
 20
0.0021791567130385
 30
0.0
  0
SPLINE
  5
F2
330
1F
100
AcDbEntity
  8
0
  6
Continuous
 62
     7
370
    25
100
AcDbSpline
210
0.0
220
0.0
230
1.0
 70
     8
 71
     3
 72
    15
 73
    11
 74
     0
 42
0.00000001
 43
0.00000001
 40
0.0
 40
0.0
 40
0.0
 40
0.0
 40
0.0906590615232323
 40
0.1904086215059926
 40
0.3016044080763809
 40
0.4270785535784921
 40
0.5699502320300414
 40
0.7332708033473758
 40
0.9195115748179846
 40
1.0
 40
1.0
 40
1.0
 40
1.0
 10
1.969882662278905
 20
0.5283200000000001
 30
0.0
 10
1.969909620336948
 20
0.529379766053247
 30
0.0
 10
1.969966239571519
 20
0.531605562238727
 30
0.0
 10
1.970453555864269
 20
0.5350593009336615
 30
0.0
 10
1.971326395263173
 20
0.538740494520502
 30
0.0
 10
1.972702051516478
 20
0.5425974503426775
 30
0.0
 10
1.974651600397253
 20
0.5465618919830222
 30
0.0
 10
1.977267191192689
 20
0.5504815573968369
 30
0.0
 10
1.979775247606378
 20
0.5535010396185538
 30
0.0
 10
1.981489019118883
 20
0.5549357571740843
 30
0.0
 10
1.982006168242018
 20
0.5553686987420672
 30
0.0
  0
LWPOLYLINE
  5
F3
330
1F
100
AcDbEntity
  8
0
  6
Continuous
 62
     7
370
    25
100
AcDbPolyline
 90
       17
 70
   128
 43
0.0
 10
2.6859351203
 20
0.5648325
 10
2.6867700003
 20
0.5646566823
 10
2.6875968399
 20
0.5641309226
 10
2.6884076763
 20
0.563260284
 10
2.6891947006
 20
0.5620531514
 10
2.6899503333
 20
0.5605211502
 10
2.6906672974
 20
0.5586790342
 10
2.691338688
 20
0.5565445442
 10
2.6919580393
 20
0.5541382363
 10
2.6925193866
 20
0.5514832848
 10
2.6930173238
 20
0.5486052581
 10
2.6934470555
 20
0.5455318734
 10
2.6938044432
 20
0.5422927288
 10
2.694086045
 20
0.5389190193
 10
2.6942891489
 20
0.5354432354
 10
2.694411799
 20
0.5318988508
 10
2.694452814
 20
0.52832
  0
LWPOLYLINE
  5
F4
330
1F
100
AcDbEntity
  8
0
  6
Continuous
 62
     7
370
    25
100
AcDbPolyline
 90
       17
 70
   128
 43
0.0
 10
2.694452814
 20
0.52832
 10
2.694411799
 20
0.5247411492
 10
2.6942891489
 20
0.5211967646
 10
2.694086045
 20
0.5177209807
 10
2.6938044432
 20
0.5143472712
 10
2.6934470555
 20
0.5111081266
 10
2.6930173238
 20
0.5080347419
 10
2.6925193866
 20
0.5051567152
 10
2.6919580393
 20
0.5025017637
 10
2.691338688
 20
0.5000954558
 10
2.6906672974
 20
0.4979609658
 10
2.6899503333
 20
0.4961188498
 10
2.6891947006
 20
0.4945868486
 10
2.6884076763
 20
0.493379716
 10
2.6875968399
 20
0.4925090774
 10
2.6867700003
 20
0.4919833177
 10
2.6859351203
 20
0.4918075
  0
SPLINE
  5
F5
330
1F
100
AcDbEntity
  8
0
  6
Continuous
 62
     7
370
    25
100
AcDbSpline
210
0.0
220
0.0
230
1.0
 70
     8
 71
     3
 72
    15
 73
    11
 74
     0
 42
0.00000001
 43
0.00000001
 40
0.0
 40
0.0
 40
0.0
 40
0.0
 40
0.0301407492590709
 40
0.2265790976416518
 40
0.3988422548071948
 40
0.549536843989004
 40
0.6818813017171439
 40
0.7991655917708642
 40
0.9043769193452486
 40
1.0
 40
1.0
 40
1.0
 40
1.0
 10
1.981014827695835
 20
0.5021347268949309
 30
0.0
 10
1.980832155181304
 20
0.5022910180103596
 30
0.0
 10
1.97945893870448
 20
0.5034659158073204
 30
0.0
 10
1.977272141220239
 20
0.5061721488462166
 30
0.0
 10
1.974650516947952
 20
0.5100751080297435
 30
0.0
 10
1.972702289339573
 20
0.5140432081710599
 30
0.0
 10
1.971326342478656
 20
0.517899359323259
 30
0.0
 10
1.97045356772458
 20
0.5215807319066258
 30
0.0
 10
1.96996623704166
 20
0.5250344307562826
 30
0.0
 10
1.969909619520935
 20
0.5272602316872765
 30
0.0
 10
1.969882662278905
 20
0.52832
 30
0.0
  0
SPLINE
  5
FB
330
1F
100
AcDbEntity
  8
0
  6
Continuous
 62
     7
370
    25
100
AcDbSpline
210
0.0
220
0.0
230
1.0
 70
     8
 71
     3
 72
    15
 73
    11
 74
     0
 42
0.00000001
 43
0.00000001
 40
0.0
 40
0.0
 40
0.0
 40
0.0
 40
0.0812417352527912
 40
0.1692341732290554
 40
0.2669834107596603
 40
0.3784512936704618
 40
0.5082536006998988
 40
0.6611016241004748
 40
0.84262722784876
 40
1.0
 40
1.0
 40
1.0
 40
1.0
 10
1.5503055600063
 20
0.469428614310552
 30
0.0
 10
1.549427655168183
 20
0.4694857653976299
 30
0.0
 10
1.547598896845993
 20
0.4696048164856041
 30
0.0
 10
1.544812262550463
 20
0.4704392630532335
 30
0.0
 10
1.541939870397315
 20
0.4719102857583619
 30
0.0
 10
1.539054658954866
 20
0.474202898088832
 30
0.0
 10
1.536245158230223
 20
0.4774296659049736
 30
0.0
 10
1.533633269864867
 20
0.481726632708381
 30
0.0
 10
1.531497352082998
 20
0.4866145291714009
 30
0.0
 10
1.530583780968366
 20
0.4901607546306448
 30
0.0
 10
1.530159549903566
 20
0.4918075
 30
0.0
  0
SPLINE
  5
FC
330
1F
100
AcDbEntity
  8
0
  6
Continuous
 62
     7
370
    25
100
AcDbSpline
210
0.0
220
0.0
230
1.0
 70
     8
 71
     3
 72
    14
 73
    10
 74
     0
 42
0.00000001
 43
0.00000001
 40
0.0
 40
0.0
 40
0.0
 40
0.0
 40
0.164372344851722
 40
0.3392967727655745
 40
0.4912742011610045
 40
0.6525849523790409
 40
0.7873797915470641
 40
0.9014376992832379
 40
1.0
 40
1.0
 40
1.0
 40
1.0
 10
1.574832885482093
 20
0.4864656829360778
 30
0.0
 10
1.573855123983061
 20
0.4850749762715246
 30
0.0
 10
1.57183683239359
 20
0.4822042848326932
 30
0.0
 10
1.56842623676274
 20
0.4784233271061972
 30
0.0
 10
1.564688530087384
 20
0.4750218735112975
 30
0.0
 10
1.560866137517473
 20
0.4723648733642419
 30
0.0
 10
1.557017331542565
 20
0.4705495901656056
 30
0.0
 10
1.553530569561771
 20
0.4695586825835264
 30
0.0
 10
1.551327032461384
 20
0.4694698114468203
 30
0.0
 10
1.5503055600063
 20
0.469428614310552
 30
0.0
  0
LWPOLYLINE
  5
FD
330
1F
100
AcDbEntity
  8
0
  6
Continuous
 62
     7
370
    25
100
AcDbPolyline
 90
       17
 70
   128
 43
0.0
 10
2.694452814
 20
0.52832
 10
2.694411799
 20
0.5318988508
 10
2.6942891489
 20
0.5354432354
 10
2.694086045
 20
0.5389190193
 10
2.6938044432
 20
0.5422927288
 10
2.6934470555
 20
0.5455318734
 10
2.6930173238
 20
0.5486052581
 10
2.6925193866
 20
0.5514832848
 10
2.6919580393
 20
0.5541382363
 10
2.691338688
 20
0.5565445442
 10
2.6906672974
 20
0.5586790342
 10
2.6899503333
 20
0.5605211502
 10
2.6891947006
 20
0.5620531514
 10
2.6884076763
 20
0.563260284
 10
2.6875968399
 20
0.5641309226
 10
2.6867700003
 20
0.5646566823
 10
2.6859351203
 20
0.5648325
  0
LWPOLYLINE
  5
FE
330
1F
100
AcDbEntity
  8
0
  6
Continuous
 62
     7
370
    25
100
AcDbPolyline
 90
       17
 70
   128
 43
0.0
 10
2.6859351203
 20
0.4918075
 10
2.6867700003
 20
0.4919833177
 10
2.6875968399
 20
0.4925090774
 10
2.6884076763
 20
0.493379716
 10
2.6891947006
 20
0.4945868486
 10
2.6899503333
 20
0.4961188498
 10
2.6906672974
 20
0.4979609658
 10
2.691338688
 20
0.5000954558
 10
2.6919580393
 20
0.5025017637
 10
2.6925193866
 20
0.5051567152
 10
2.6930173238
 20
0.5080347419
 10
2.6934470555
 20
0.5111081266
 10
2.6938044432
 20
0.5143472712
 10
2.694086045
 20
0.5177209807
 10
2.6942891489
 20
0.5211967646
 10
2.694411799
 20
0.5247411492
 10
2.694452814
 20
0.52832
  0
SPLINE
  5
100
330
1F
100
AcDbEntity
  8
0
  6
Continuous
 62
     7
370
    25
100
AcDbSpline
210
0.0
220
0.0
230
1.0
 70
     8
 71
     3
 72
    18
 73
    14
 74
     0
 42
0.00000001
 43
0.00000001
 40
0.0
 40
0.0
 40
0.0
 40
0.0
 40
0.0631406736700857
 40
0.1737236283075577
 40
0.2811648902822666
 40
0.3842167595850676
 40
0.4819621821519241
 40
0.5738237982523424
 40
0.6758956014228832
 40
0.7691121904100867
 40
0.8538148473123562
 40
0.9305576715818197
 40
1.0
 40
1.0
 40
1.0
 40
1.0
 10
-0.4480738400556257
 20
0.5220634174372325
 30
0.0
 10
-0.4483182192033974
 20
0.5220380623784971
 30
0.0
 10
-0.4489905977157873
 20
0.5219683011209206
 30
0.0
 10
-0.4498845237984275
 20
0.5207890071970273
 30
0.0
 10
-0.4507322605854598
 20
0.5187175131364011
 30
0.0
 10
-0.4513313490750388
 20
0.5159042779315619
 30
0.0
 10
-0.4516994523672961
 20
0.5125886013056474
 30
0.0
 10
-0.4518660786694013
 20
0.5087278637792662
 30
0.0
 10
-0.4518235663237045
 20
0.5044387716778013
 30
0.0
 10
-0.4515789671297357
 20
0.4998707029105484
 30
0.0
 10
-0.4511884500890591
 20
0.4954737779732666
 30
0.0
 10
-0.4507106791512339
 20
0.491353431463951
 30
0.0
 10
-0.4503198314571855
 20
0.4886992871683785
 30
0.0
 10
-0.4501341670895489
 20
0.487438489088315
 30
0.0
  0
SPLINE
  5
101
330
1F
100
AcDbEntity
  8
0
  6
Continuous
 62
     7
370
    25
100
AcDbSpline
210
0.0
220
0.0
230
1.0
 70
     8
 71
     3
 72
    11
 73
     7
 74
     0
 42
0.00000001
 43
0.00000001
 40
0.0
 40
0.0
 40
0.0
 40
0.0
 40
0.2363006672679132
 40
0.4973437100521777
 40
0.785350743143131
 40
1.0
 40
1.0
 40
1.0
 40
1.0
 10
-0.4501341670895491
 20
0.4874384890883151
 30
0.0
 10
-0.4499311131144512
 20
0.4861747393556223
 30
0.0
 10
-0.4495037439559817
 20
0.4835149162247707
 30
0.0
 10
-0.448702277241388
 20
0.4793518521728616
 30
0.0
 10
-0.4478483399705355
 20
0.4753694183409735
 30
0.0
 10
-0.4472147403923559
 20
0.4729123193026962
 30
0.0
 10
-0.4469441744384011
 20
0.4718630645870242
 30
0.0
  0
SPLINE
  5
102
330
1F
100
AcDbEntity
  8
0
  6
Continuous
 62
     7
370
    25
100
AcDbSpline
210
0.0
220
0.0
230
1.0
 70
     8
 71
     3
 72
    19
 73
    15
 74
     0
 42
0.00000001
 43
0.00000001
 40
0.0
 40
0.0
 40
0.0
 40
0.0
 40
0.0383918699110734
 40
0.1261836730231083
 40
0.2144377342349924
 40
0.3032493313578629
 40
0.392184826016394
 40
0.4803653660376772
 40
0.5666908155606115
 40
0.6662904554366805
 40
0.7601466871291646
 40
0.8472765920647913
 40
0.9272331166060153
 40
1.0
 40
1.0
 40
1.0
 40
1.0
 10
-1.179919857115848
 20
0.3185566559756746
 30
0.0
 10
-1.180201969713919
 20
0.3184774575584274
 30
0.0
 10
-1.181129197377309
 20
0.3182171538220112
 30
0.0
 10
-1.183710729530915
 20
0.3186922558999993
 30
0.0
 10
-1.187456201579182
 20
0.3199254052711036
 30
0.0
 10
-1.19183196927787
 20
0.3219353491015837
 30
0.0
 10
-1.196543032381733
 20
0.3245082388192178
 30
0.0
 10
-1.201399616306027
 20
0.3274964734263611
 30
0.0
 10
-1.206520279176028
 20
0.3309389021085439
 30
0.0
 10
-1.211730041343608
 20
0.3347236167972286
 30
0.0
 10
-1.216852192572566
 20
0.3387110310775031
 30
0.0
 10
-1.221470418763405
 20
0.3425303266796008
 30
0.0
 10
-1.225574504472657
 20
0.346097719567311
 30
0.0
 10
-1.228048759833615
 20
0.3483844508847458
 30
0.0
 10
-1.22922764821603
 20
0.3494739912072075
 30
0.0
  0
SPLINE
  5
104
330
1F
100
AcDbEntity
  8
0
  6
Continuous
 62
     7
370
    25
100
AcDbSpline
210
0.0
220
0.0
230
1.0
 70
     8
 71
     3
 72
    18
 73
    14
 74
     0
 42
0.00000001
 43
0.00000001
 40
0.0
 40
0.0
 40
0.0
 40
0.0
 40
0.0788188927478077
 40
0.1654253878780132
 40
0.2598018722337373
 40
0.3614641108022011
 40
0.4693474358390494
 40
0.562852558361803
 40
0.6583670589451227
 40
0.75469930361486
 40
0.8508973462119068
 40
0.9464914827307734
 40
1.0
 40
1.0
 40
1.0
 40
1.0
 10
-1.22922764821603
 20
0.3494739912072075
 30
0.0
 10
-1.230373986932515
 20
0.3505635313238792
 30
0.0
 10
-1.232779926932471
 20
0.3528502622094017
 30
0.0
 10
-1.236289147087723
 20
0.3564176586897828
 30
0.0
 10
-1.239821800428171
 20
0.3602369387806105
 30
0.0
 10
-1.243209405005424
 20
0.3642244176994338
 30
0.0
 10
-1.246076466968581
 20
0.368008884960539
 30
0.0
 10
-1.248303318704552
 20
0.3714521351031657
 30
0.0
 10
-1.249820692592821
 20
0.3744373309859778
 30
0.0
 10
-1.2506131651954
 20
0.3770217143431447
 30
0.0
 10
-1.25047980546826
 20
0.3789888390982351
 30
0.0
 10
-1.249676511445925
 20
0.3801787621257702
 30
0.0
 10
-1.248519522475571
 20
0.3803351893503852
 30
0.0
 10
-1.248104313472058
 20
0.3803913264387404
 30
0.0
  0
SPLINE
  5
105
330
1F
100
AcDbEntity
  8
0
  6
Continuous
 62
     7
370
    25
100
AcDbSpline
210
0.0
220
0.0
230
1.0
 70
     8
 71
     3
 72
    12
 73
     8
 74
     0
 42
0.00000001
 43
0.00000001
 40
0.0
 40
0.0
 40
0.0
 40
0.0
 40
0.0000093048979307
 40
0.3219010570139584
 40
0.6394132193590101
 40
0.9485130184361873
 40
1.0
 40
1.0
 40
1.0
 40
1.0
 10
2.393404214310875
 20
-0.150737120484474
 30
0.0
 10
2.393404219163431
 20
-0.1507371787169992
 30
0.0
 10
2.393572092370648
 20
-0.1527517211160497
 30
0.0
 10
2.393005288861263
 20
-0.1567935433695229
 30
0.0
 10
2.391574329737042
 20
-0.1625521954591093
 30
0.0
 10
2.389998700902069
 20
-0.1665675977852776
 30
0.0
 10
2.388764070167189
 20
-0.1684668017504014
 30
0.0
 10
2.38858778136988
 20
-0.1687379827386906
 30
0.0
  0
SPLINE
  5
106
330
1F
100
AcDbEntity
  8
0
  6
Continuous
 62
     7
370
    25
100
AcDbSpline
210
0.0
220
0.0
230
1.0
 70
     8
 71
     3
 72
    13
 73
     9
 74
     0
 42
0.00000001
 43
0.00000001
 40
0.0
 40
0.0
 40
0.0
 40
0.0
 40
0.1504721300998487
 40
0.3249134794280381
 40
0.5240648363870838
 40
0.7021911426789231
 40
0.8602735900442589
 40
0.9999999999999999
 40
0.9999999999999999
 40
0.9999999999999999
 40
0.9999999999999999
 10
2.375184758292285
 20
-0.1637268984695562
 30
0.0
 10
2.374543573247123
 20
-0.1645918657393095
 30
0.0
 10
2.373159066602322
 20
-0.1664595838677124
 30
0.0
 10
2.370305847613347
 20
-0.1689224689726009
 30
0.0
 10
2.366938218652239
 20
-0.1710018987986431
 30
0.0
 10
2.363352976073487
 20
-0.1723743550792775
 30
0.0
 10
2.360017208821476
 20
-0.1731075172702348
 30
0.0
 10
2.357889774173588
 20
-0.1731900823402391
 30
0.0
 10
2.356891621168875
 20
-0.1732288203446195
 30
0.0
  0
SPLINE
  5
108
330
1F
100
AcDbEntity
  8
0
  6
Continuous
 62
     7
370
    25
100
AcDbSpline
210
0.0
220
0.0
230
1.0
 70
     8
 71
     3
 72
    16
 73
    12
 74
     0
 42
0.00000001
 43
0.00000001
 40
0.0
 40
0.0
 40
0.0
 40
0.0
 40
0.0931440627826221
 40
0.1985245116937016
 40
0.3172664619557933
 40
0.4500239905833252
 40
0.566309398114751
 40
0.6908374208994015
 40
0.8223537252417037
 40
0.9589794196482769
 40
1.0
 40
1.0
 40
1.0
 40
1.0
 10
2.356891621168875
 20
-0.1732288203446195
 30
0.0
 10
2.355893512203378
 20
-0.1731900424006246
 30
0.0
 10
2.353766172155362
 20
-0.1731073922330659
 30
0.0
 10
2.350429611905908
 20
-0.1723747570088997
 30
0.0
 10
2.346848019674901
 20
-0.1709997262980359
 30
0.0
 10
2.343465587326427
 20
-0.1689306159223652
 30
0.0
 10
2.340465572064826
 20
-0.1662613316948712
 30
0.0
 10
2.337958210983679
 20
-0.16312570743102
 30
0.0
 10
2.336020077321136
 20
-0.1593858339547396
 30
0.0
 10
2.33490065641294
 20
-0.1562168925913506
 30
0.0
 10
2.334749234678636
 20
-0.1543180395581835
 30
0.0
 10
2.334714269648114
 20
-0.153879572421571
 30
0.0
  0
SPLINE
  5
10C
330
1F
100
AcDbEntity
  8
0
  6
Continuous
 62
     7
370
    25
100
AcDbSpline
210
0.0
220
0.0
230
1.0
 70
    24
 71
     3
 72
    26
 73
    22
 74
     0
 42
0.00000001
 43
0.00000001
 40
0.0
 40
0.0
 40
0.0
 40
0.0
 40
0.0624999999999988
 40
0.0624999999999988
 40
0.1249999999999976
 40
0.1249999999999976
 40
0.1874999999999964
 40
0.1874999999999964
 40
0.2499999999999952
 40
0.2499999999999952
 40
0.3749999999999959
 40
0.3749999999999959
 40
0.4999999999999968
 40
0.4999999999999968
 40
0.6249999999999976
 40
0.6249999999999976
 40
0.7499999999999983
 40
0.7499999999999983
 40
0.8749999999999992
 40
0.8749999999999992
 40
1.0
 40
1.0
 40
1.0
 40
1.0
 10
1.712991777962827
 20
1.0607675
 30
0.0
 10
1.712991777962827
 20
1.060767500000001
 30
0.0
 10
1.712914829757953
 20
1.060862951735328
 30
0.0
 10
1.712610602106252
 20
1.061240336202416
 30
0.0
 10
1.712383349450923
 20
1.061522235700198
 30
0.0
 10
1.71178885441639
 20
1.062259687376726
 30
0.0
 10
1.711421660082138
 20
1.06271517995728
 30
0.0
 10
1.710563250733594
 20
1.063780008721966
 30
0.0
 10
1.710072095723461
 20
1.064389270472895
 30
0.0
 10
1.708442505636373
 20
1.066410723760093
 30
0.0
 10
1.707147966691854
 20
1.06801655704635
 30
0.0
 10
1.704319959725182
 20
1.071524607337212
 30
0.0
 10
1.702787828034176
 20
1.073425166666667
 30
0.0
 10
1.699648151133053
 20
1.077319833333333
 30
0.0
 10
1.69804105354492
 20
1.079313385410091
 30
0.0
 10
1.694870063113284
 20
1.083246895488785
 30
0.0
 10
1.693306003792783
 20
1.08518706
 30
0.0
 10
1.690291913967705
 20
1.08892594
 30
0.0
 10
1.688841481100723
 20
1.090725154606208
 30
0.0
 10
1.686087594242505
 20
1.094141261322996
 30
0.0
 10
1.684783743304297
 20
1.095758645833333
 30
0.0
 10
1.683557307014795
 20
1.09728
 30
0.0
  0
SPLINE
  5
10E
330
1F
100
AcDbEntity
  8
0
  6
Continuous
 62
     7
370
    25
100
AcDbSpline
210
0.0
220
0.0
230
1.0
 70
     8
 71
     3
 72
    15
 73
    11
 74
     0
 42
0.00000001
 43
0.00000001
 40
0.0
 40
0.0
 40
0.0
 40
0.0
 40
0.0956230806547541
 40
0.2008344082291459
 40
0.3181186982828682
 40
0.4504631560110134
 40
0.6011577451928298
 40
0.773420902358377
 40
0.969859250740963
 40
1.0
 40
1.0
 40
1.0
 40
1.0
 10
1.969882662278905
 20
0.52832
 30
0.0
 10
1.969909619520935
 20
0.5272602316872764
 30
0.0
 10
1.969966237041659
 20
0.5250344307562828
 30
0.0
 10
1.97045356772458
 20
0.5215807319066258
 30
0.0
 10
1.971326342478659
 20
0.5178993593232594
 30
0.0
 10
1.972702289339572
 20
0.5140432081710599
 30
0.0
 10
1.974650516947953
 20
0.5100751080297437
 30
0.0
 10
1.977272141220239
 20
0.5061721488462166
 30
0.0
 10
1.979458938704481
 20
0.5034659158073209
 30
0.0
 10
1.980832155181305
 20
0.5022910180103605
 30
0.0
 10
1.981014827695836
 20
0.502134726894932
 30
0.0
  0
SPLINE
  5
10F
330
1F
100
AcDbEntity
  8
0
  6
Continuous
 62
     7
370
    25
100
AcDbSpline
210
0.0
220
0.0
230
1.0
 70
     8
 71
     3
 72
    15
 73
    11
 74
     0
 42
0.00000001
 43
0.00000001
 40
0.0
 40
0.0
 40
0.0
 40
0.0
 40
0.0804884251819617
 40
0.2667291966525923
 40
0.4300497679699271
 40
0.5729214464214843
 40
0.6983955919236098
 40
0.8095913784939944
 40
0.9093409384767651
 40
1.0
 40
1.0
 40
1.0
 40
1.0
 10
1.982006168242018
 20
0.5553686987420668
 30
0.0
 10
1.981489019118884
 20
0.5549357571740842
 30
0.0
 10
1.979775247606378
 20
0.5535010396185537
 30
0.0
 10
1.97726719119269
 20
0.5504815573968372
 30
0.0
 10
1.974651600397254
 20
0.5465618919830224
 30
0.0
 10
1.972702051516478
 20
0.5425974503426775
 30
0.0
 10
1.971326395263173
 20
0.5387404945205024
 30
0.0
 10
1.970453555864269
 20
0.5350593009336614
 30
0.0
 10
1.969966239571519
 20
0.5316055622387271
 30
0.0
 10
1.969909620336948
 20
0.5293797660532471
 30
0.0
 10
1.969882662278905
 20
0.52832
 30
0.0
  0
SPLINE
  5
111
330
1F
100
AcDbEntity
  8
0
  6
Continuous
 62
     7
370
    25
100
AcDbSpline
210
0.0
220
0.0
230
1.0
 70
     8
 71
     3
 72
    21
 73
    17
 74
     0
 42
0.00000001
 43
0.00000001
 40
0.0
 40
0.0
 40
0.0
 40
0.0
 40
0.0510952361995345
 40
0.1166941628820899
 40
0.1848427661682542
 40
0.2553889926992476
 40
0.3277912707712541
 40
0.4011725907384574
 40
0.4831752878133458
 40
0.5634906586345807
 40
0.6407267883481192
 40
0.7138124518797585
 40
0.7820477832646751
 40
0.8635045783181464
 40
0.935998035812566
 40
1.0
 40
1.0
 40
1.0
 40
1.0
 10
-1.24803929522893
 20
0.380465873620892
 30
0.0
 10
-1.248532315953193
 20
0.3803666283782692
 30
0.0
 10
-1.249658304303198
 20
0.3801399665332653
 30
0.0
 10
-1.250473265419671
 20
0.3789710403107008
 30
0.0
 10
-1.250614913876447
 20
0.377134576171283
 30
0.0
 10
-1.249914764900271
 20
0.3746714604505657
 30
0.0
 10
-1.24845562497758
 20
0.3717102658188565
 30
0.0
 10
-1.246237717754174
 20
0.3682339677648156
 30
0.0
 10
-1.243312515727354
 20
0.3643482917367619
 30
0.0
 10
-1.239785544135488
 20
0.3601897778705911
 30
0.0
 10
-1.235955624092586
 20
0.3560586376844723
 30
0.0
 10
-1.231992412406809
 20
0.3520780507841598
 30
0.0
 10
-1.227679374764979
 20
0.3479967576747007
 30
0.0
 10
-1.223124524900826
 20
0.3439400227330982
 30
0.0
 10
-1.218459612620272
 20
0.3400103276222756
 30
0.0
 10
-1.215431806969761
 20
0.3376286346417076
 30
0.0
 10
-1.214012085293952
 20
0.3365118716985295
 30
0.0
  0
SPLINE
  5
113
330
1F
100
AcDbEntity
  8
0
  6
Continuous
 62
     7
370
    25
100
AcDbSpline
210
0.0
220
0.0
230
1.0
 70
     8
 71
     3
 72
    17
 73
    13
 74
     0
 42
0.00000001
 43
0.00000001
 40
0.0
 40
0.0
 40
0.0
 40
0.0
 40
0.096145691942161
 40
0.1999084453002133
 40
0.3109683241285164
 40
0.4286593413433723
 40
0.5520569361211136
 40
0.6478525255521118
 40
0.7461158735355192
 40
0.8468722032309738
 40
0.9504617346490404
 40
1.0
 40
1.0
 40
1.0
 40
1.0
 10
-1.214012085293952
 20
0.3365118716985295
 30
0.0
 10
-1.212737829910302
 20
0.3355386824912905
 30
0.0
 10
-1.210088367334131
 20
0.3335152039820388
 30
0.0
 10
-1.2058994830692
 20
0.3305225123412764
 30
0.0
 10
-1.201416177952652
 20
0.3275113856892817
 30
0.0
 10
-1.196726469809253
 20
0.3246176894682404
 30
0.0
 10
-1.192399919912124
 20
0.3222372845477364
 30
0.0
 10
-1.188593196673785
 20
0.320436371517704
 30
0.0
 10
-1.185363236487949
 20
0.319186373148668
 30
0.0
 10
-1.182536619369943
 20
0.3184633590160439
 30
0.0
 10
-1.180526647165009
 20
0.3182474750914068
 30
0.0
 10
-1.179772156684392
 20
0.3185250593434321
 30
0.0
 10
-1.17952807200204
 20
0.3186148604286969
 30
0.0
  0
SPLINE
  5
119
330
1F
100
AcDbEntity
  8
0
  6
Continuous
 62
     7
370
    25
100
AcDbSpline
210
0.0
220
0.0
230
1.0
 70
     8
 71
     3
 72
    50
 73
    46
 74
     0
 42
0.00000001
 43
0.00000001
 40
0.0
 40
0.0
 40
0.0
 40
0.0
 40
0.0100745516123365
 40
0.0202131117807107
 40
0.0304150697950935
 40
0.0406798163437229
 40
0.0510067441834476
 40
0.061395248799875
 40
0.0718447290576626
 40
0.0823545878412645
 40
0.0929242326863858
 40
0.1035530764024283
 40
0.1142405376861243
 40
0.1249860417265928
 40
0.1859423662560903
 40
0.2491066999818554
 40
0.3098219573041229
 40
0.3733970139104002
 40
0.4333231617212572
 40
0.4985318442280175
 40
0.5610882146442119
 40
0.6235780137439999
 40
0.6860970517815441
 40
0.7487622375172578
 40
0.7821624102114382
 40
0.8115012935521189
 40
0.8451093209179026
 40
0.8742157758837942
 40
0.8905194515713657
 40
0.9054556217900309
 40
0.9135305802111428
 40
0.9210949494165531
 40
0.929134221117297
 40
0.9368287006106357
 40
0.9455049093440443
 40
0.9536444135477657
 40
0.9612777819789644
 40
0.9684413391543765
 40
0.9733299567353613
 40
0.9780550288927877
 40
0.9826368491121058
 40
0.9870975748323563
 40
0.9914611343995056
 40
0.995753025630361
 40
0.9999999999999999
 40
0.9999999999999999
 40
0.9999999999999999
 40
0.9999999999999999
 10
1.904186991965427
 20
1.089490155698963
 30
0.0
 10
1.904437104122626
 20
1.08920147793012
 30
0.0
 10
1.904938917521944
 20
1.088622288281312
 30
0.0
 10
1.905690384785353
 20
1.087747742513291
 30
0.0
 10
1.906443761282828
 20
1.086865536196179
 30
0.0
 10
1.907198614285728
 20
1.085975500476556
 30
0.0
 10
1.907954837144574
 20
1.085077749021482
 30
0.0
 10
1.908712237726389
 20
1.084172320706424
 30
0.0
 10
1.909470649863166
 20
1.083259276146177
 30
0.0
 10
1.910229903246845
 20
1.082338671587536
 30
0.0
 10
1.910989832027792
 20
1.081410565585073
 30
0.0
 10
1.911750271320904
 20
1.080475018205467
 30
0.0
 10
1.912511063096062
 20
1.079532086988117
 30
0.0
 10
1.914455974585706
 20
1.077103435289909
 30
0.0
 10
1.917584303929469
 20
1.073097322779306
 30
0.0
 10
1.921728257110747
 20
1.067542450751938
 30
0.0
 10
1.925779300020233
 20
1.061850979199178
 30
0.0
 10
1.929602409036293
 20
1.056205366368898
 30
0.0
 10
1.933354658076143
 20
1.0503763478317
 30
0.0
 10
1.936912622801065
 20
1.044537006552809
 30
0.0
 10
1.94033743663155
 20
1.038584391629954
 30
0.0
 10
1.943530423135936
 20
1.032691976141064
 30
0.0
 10
1.946537869949328
 20
1.026786361536383
 30
0.0
 10
1.948913779485791
 20
1.021804867589615
 30
0.0
 10
1.950684691022365
 20
1.017892248542805
 30
0.0
 10
1.951989015341868
 20
1.014909026114714
 30
0.0
 10
1.953175903213277
 20
1.012093381385376
 30
0.0
 10
1.954139242982461
 20
1.009725591477415
 30
0.0
 10
1.954837286062692
 20
1.007963962189687
 30
0.0
 10
1.955272862029895
 20
1.00684492791482
 30
0.0
 10
1.955598797606815
 20
1.005997128464265
 30
0.0
 10
1.955843701506139
 20
1.005354781326545
 30
0.0
 10
1.956075622194512
 20
1.00474032285482
 30
0.0
 10
1.956308411029864
 20
1.004118532113321
 30
0.0
 10
1.956529876146786
 20
1.003522233011566
 30
0.0
 10
1.956735177407693
 20
1.002964744761286
 30
0.0
 10
1.956911231155735
 20
1.002483414972164
 30
0.0
 10
1.95704594249855
 20
1.002112910124143
 30
0.0
 10
1.957146539906435
 20
1.001834756338424
 30
0.0
 10
1.957220807310678
 20
1.001628648840317
 30
0.0
 10
1.957281432666514
 20
1.001459984750394
 30
0.0
 10
1.957328614368756
 20
1.001328543507319
 30
0.0
 10
1.957362067682619
 20
1.001235326397442
 30
0.0
 10
1.957383078566596
 20
1.001176848451605
 30
0.0
 10
1.957385698689303
 20
1.001169576827606
 30
0.0
 10
1.95738700185936
 20
1.001165960141011
 30
0.0
  0
SPLINE
  5
11B
330
1F
100
AcDbEntity
  8
0
  6
Continuous
 62
     7
370
    25
100
AcDbSpline
210
0.0
220
0.0
230
1.0
 70
     8
 71
     3
 72
    35
 73
    31
 74
     0
 42
0.00000001
 43
0.00000001
 40
0.0
 40
0.0
 40
0.0
 40
0.0
 40
0.0055115785716816
 40
0.0110422695133332
 40
0.0166015949144194
 40
0.0221989341229143
 40
0.0278434820599534
 40
0.033544211936386
 40
0.0393098429958939
 40
0.0451488136646565
 40
0.0510692602492916
 40
0.0570790011091188
 40
0.0631855260471883
 40
0.0931075334139747
 40
0.126281568442629
 40
0.1561936399993742
 40
0.1890664971998431
 40
0.219285596790913
 40
0.2520358919320446
 40
0.310414472701977
 40
0.3768628771344864
 40
0.4357725859978689
 40
0.5014254923865854
 40
0.6262609411577922
 40
0.6851972696346196
 40
0.7512201840364654
 40
0.8092041680603681
 40
0.8757487412162772
 40
0.918281718822449
 40
1.0
 40
1.0
 40
1.0
 40
1.0
 10
1.970726812342873
 20
0.9279242270871085
 30
0.0
 10
1.9707268278667
 20
0.9279232038052495
 30
0.0
 10
1.970726858968183
 20
0.9279211536931211
 30
0.0
 10
1.970727117191273
 20
0.9279046095344069
 30
0.0
 10
1.970727536346268
 20
0.92787821229514
 30
0.0
 10
1.970728132449504
 20
0.9278409845524319
 30
0.0
 10
1.970728899681932
 20
0.927793188405013
 30
0.0
 10
1.970729834284537
 20
0.9277347504131725
 30
0.0
 10
1.970730928077808
 20
0.9276656875948157
 30
0.0
 10
1.970732170268344
 20
0.9275859918849306
 30
0.0
 10
1.970733546756391
 20
0.9274956612269052
 30
0.0
 10
1.97073504107515
 20
0.9273946919443494
 30
0.0
 10
1.970738688647615
 20
0.9271386677707915
 30
0.0
 10
1.97074527113722
 20
0.9266222336992432
 30
0.0
 10
1.970753418363374
 20
0.9257762271248458
 30
0.0
 10
1.970758809797797
 20
0.924797532490631
 30
0.0
 10
1.970760222192026
 20
0.9237764550690795
 30
0.0
 10
1.970756652294049
 20
0.9226702867097448
 30
0.0
 10
1.970745276211821
 20
0.9212181685882551
 30
0.0
 10
1.9707161104536
 20
0.9192582860217342
 30
0.0
 10
1.97065800495193
 20
0.9168968268104586
 30
0.0
 10
1.970570287907423
 20
0.914386779302185
 30
0.0
 10
1.970420223937715
 20
0.9110565666160991
 30
0.0
 10
1.97021390802652
 20
0.9076644652035473
 30
0.0
 10
1.969951961174715
 20
0.9042298872453595
 30
0.0
 10
1.969732606468281
 20
0.901698167496327
 30
0.0
 10
1.969475441867952
 20
0.8990471228439721
 30
0.0
 10
1.969224624944213
 20
0.896712031485872
 30
0.0
 10
1.968913423752826
 20
0.8940360802095141
 30
0.0
 10
1.968686243451757
 20
0.892285435287767
 30
0.0
 10
1.968536830207155
 20
0.8911340610855436
 30
0.0
  0
SPLINE
  5
11C
330
1F
100
AcDbEntity
  8
0
  6
Continuous
 62
     7
370
    25
100
AcDbSpline
210
0.0
220
0.0
230
1.0
 70
    24
 71
     3
 72
    14
 73
    10
 74
     0
 42
0.00000001
 43
0.00000001
 40
0.0
 40
0.0
 40
0.0
 40
0.0
 40
0.25
 40
0.25
 40
0.5
 40
0.5
 40
0.75
 40
0.75
 40
1.0
 40
1.0
 40
1.0
 40
1.0
 10
1.96853683020715
 20
0.891134061085544
 30
0.0
 10
1.970059604218284
 20
0.8904062475085776
 30
0.0
 10
1.971450827827587
 20
0.8897413087691171
 30
0.0
 10
1.973884075011155
 20
0.8885783323042126
 30
0.0
 10
1.974925641045147
 20
0.888080513261266
 30
0.0
 10
1.976600470618548
 20
0.8872800243550235
 30
0.0
 10
1.977233524675803
 20
0.8869774546142375
 30
0.0
 10
1.978070887091966
 20
0.8865772351917435
 30
0.0
 10
1.97827530019195
 20
0.8864795354487811
 30
0.0
 10
1.97827530019195
 20
0.886479535448781
 30
0.0
  0
SPLINE
  5
11F
330
1F
100
AcDbEntity
  8
0
  6
Continuous
 62
     7
370
    25
100
AcDbSpline
210
0.0
220
0.0
230
1.0
 70
    24
 71
     3
 72
    19
 73
    15
 74
     0
 42
0.00000001
 43
0.00000001
 40
0.0
 40
0.0
 40
0.0
 40
0.0
 40
0.0462381032799431
 40
0.0970447227054699
 40
0.1535270908526847
 40
0.2170126385442853
 40
0.2889639153874009
 40
0.3708142705192957
 40
0.4637257325502039
 40
0.568292770232603
 40
0.6842432901482177
 40
0.8102156020639237
 40
0.9437018037047024
 40
0.9999999999999999
 40
0.9999999999999999
 40
0.9999999999999999
 40
0.9999999999999999
 10
2.05015850033625
 20
0.4918075
 30
0.0
 10
2.050126218306193
 20
0.4918344334487446
 30
0.0
 10
2.05005846464778
 20
0.4918909614825417
 30
0.0
 10
2.049475318751821
 20
0.4923774900580881
 30
0.0
 10
2.048430530983259
 20
0.4932491743283705
 30
0.0
 10
2.046784322398569
 20
0.4946226342520561
 30
0.0
 10
2.044447016362698
 20
0.4965726885765897
 30
0.0
 10
2.041325381370126
 20
0.4991771219385277
 30
0.0
 10
2.03735748679409
 20
0.5024876041169567
 30
0.0
 10
2.032522793066208
 20
0.5065212716244042
 30
0.0
 10
2.026862139219561
 20
0.5112440517584257
 30
0.0
 10
2.020484543548656
 20
0.5165649886949265
 30
0.0
 10
2.01499894521232
 20
0.5211417170284217
 30
0.0
 10
2.011662997297723
 20
0.5239249553196182
 30
0.0
 10
2.010673411996879
 20
0.5247505832287531
 30
0.0
  0
SPLINE
  5
120
330
1F
100
AcDbEntity
  8
0
  6
Continuous
 62
     7
370
    25
100
AcDbSpline
210
0.0
220
0.0
230
1.0
 70
    24
 71
     3
 72
    15
 73
    11
 74
     0
 42
0.00000001
 43
0.00000001
 40
0.0
 40
0.0
 40
0.0
 40
0.0
 40
0.1267665016403699
 40
0.3017263870467048
 40
0.4558573030964715
 40
0.5913474447446836
 40
0.7108959256994554
 40
0.8172568465428761
 40
0.9129298681300001
 40
1.0
 40
1.0
 40
1.0
 40
1.0
 10
1.978421427227296
 20
0.5516589646770848
 30
0.0
 10
1.977373899386582
 20
0.5525329350363375
 30
0.0
 10
1.974880600394975
 20
0.5546131369467079
 30
0.0
 10
1.971471072974101
 20
0.5574577638760227
 30
0.0
 10
1.968341956621955
 20
0.5600684390639614
 30
0.0
 10
1.966006301012103
 20
0.5620171164098943
 30
0.0
 10
1.964359726817078
 20
0.5633908813685237
 30
0.0
 10
1.963315020878042
 20
0.5642624973670365
 30
0.0
 10
1.962731856686115
 20
0.5647490412072195
 30
0.0
 10
1.96266410521124
 20
0.5648055674192552
 30
0.0
 10
1.962631824221555
 20
0.5648325
 30
0.0
  0
SPLINE
  5
122
330
1F
100
AcDbEntity
  8
0
  6
Continuous
 62
     7
370
    25
100
AcDbSpline
210
0.0
220
0.0
230
1.0
 70
     8
 71
     3
 72
    21
 73
    17
 74
     0
 42
0.00000001
 43
0.00000001
 40
0.0
 40
0.0
 40
0.0
 40
0.0
 40
0.1050229961504588
 40
0.211732941970138
 40
0.2803795233470354
 40
0.3510779513192183
 40
0.423979040099356
 40
0.49157766733404
 40
0.5624201094166804
 40
0.6366211564410048
 40
0.68596433130026
 40
0.7378314416998211
 40
0.7922602182696845
 40
0.8492907522768062
 40
0.9265314707099656
 40
1.0
 40
1.0
 40
1.0
 40
1.0
 10
1.87251845237912
 20
1.059596614769696
 30
0.0
 10
1.872552812218827
 20
1.059632059984898
 30
0.0
 10
1.872622083808987
 20
1.059703519760076
 30
0.0
 10
1.873111851628201
 20
1.060212381655459
 30
0.0
 10
1.87373917394893
 20
1.060858873434528
 30
0.0
 10
1.874424770209999
 20
1.061563248533209
 30
0.0
 10
1.875242113760055
 20
1.062399267341815
 30
0.0
 10
1.876186217894095
 20
1.063357372355445
 30
0.0
 10
1.877250735520849
 20
1.064431330570439
 30
0.0
 10
1.878325421591584
 20
1.065508083477251
 30
0.0
 10
1.879367676923318
 20
1.066543638335529
 30
0.0
 10
1.880341631305142
 20
1.067505774306865
 30
0.0
 10
1.881413749547235
 20
1.068558827187593
 30
0.0
 10
1.882711222647673
 20
1.069824330946291
 30
0.0
 10
1.884204628328269
 20
1.071268112554741
 30
0.0
 10
1.885358847893691
 20
1.07236974349109
 30
0.0
 10
1.88592151286104
 20
1.072906772279546
 30
0.0
  0
SPLINE
  5
125
330
1F
100
AcDbEntity
  8
0
  6
Continuous
 62
     7
370
    25
100
AcDbSpline
210
0.0
220
0.0
230
1.0
 70
     8
 71
     3
 72
    20
 73
    16
 74
     0
 42
0.00000001
 43
0.00000001
 40
0.0
 40
0.0
 40
0.0
 40
0.0
 40
0.0754210645157248
 40
0.1582151221615512
 40
0.2482384370867688
 40
0.3448364357442102
 40
0.446725987788673
 40
0.5343388476763092
 40
0.6229900365264006
 40
0.7113804602482118
 40
0.7769472709559775
 40
0.8416511516233314
 40
0.9055745744990927
 40
0.9690358518595367
 40
1.0
 40
1.0
 40
1.0
 40
1.0
 10
0.0674192308390386
 20
-0.0365125000000001
 30
0.0
 10
0.0661404610730454
 20
-0.0364734711310393
 30
0.0
 10
0.0634579118934202
 20
-0.0363915980189307
 30
0.0
 10
0.0592732139204252
 20
-0.0356787441082322
 30
0.0
 10
0.0547940815225357
 20
-0.0343783222506815
 30
0.0
 10
0.0501188978646281
 20
-0.0323013558646575
 30
0.0
 10
0.0456789364113568
 20
-0.0294960067801771
 30
0.0
 10
0.041638271134715
 20
-0.0260271948294376
 30
0.0
 10
0.0381333676700002
 20
-0.0220332643424294
 30
0.0
 10
0.0353539139779656
 20
-0.0177062035702885
 30
0.0
 10
0.0333222905413477
 20
-0.0133030765335121
 30
0.0
 10
0.0319449337827347
 20
-0.0090482112513898
 30
0.0
 10
0.0311183468382242
 20
-0.0045832359326299
 30
0.0
 10
0.0308047927191503
 20
-0.0007732333423569
 30
0.0
 10
0.0309859616736439
 20
0.0014795157580172
 30
0.0
 10
0.0310453709091929
 20
0.0022182411224754
 30
0.0
  0
LINE
  5
135
330
1F
100
AcDbEntity
  8
0
  6
Continuous
 62
     7
370
    25
100
AcDbLine
 10
2.3934042289
 20
-0.1506516088
 30
0.0
 11
2.3934042289
 21
0.0425843228
 31
0.0
  0
LINE
  5
136
330
1F
100
AcDbEntity
  8
0
  6
Continuous
 62
     7
370
    25
100
AcDbLine
 10
2.5133196664
 20
0.1343726479
 30
0.0
 11
1.9021629321
 21
0.057372012
 31
0.0
  0
LINE
  5
137
330
1F
100
AcDbEntity
  8
0
  6
Continuous
 62
     7
370
    25
100
AcDbLine
 10
1.7697001198
 20
0.0406828058
 30
0.0
 11
1.7366002573
 21
0.0365125
 31
0.0
  0
LINE
  5
138
330
1F
100
AcDbEntity
  8
0
  6
Continuous
 62
     7
370
    25
100
AcDbLine
 10
2.3185942112
 20
0.0339985721
 30
0.0
 11
2.3185942112
 21
-0.1538793976
 31
0.0
  0
LINE
  5
139
330
1F
100
AcDbEntity
  8
0
  6
Continuous
 62
     7
370
    25
100
AcDbLine
 10
2.3916192112
 20
-0.1537940609
 30
0.0
 11
2.3916192112
 21
0.0423678769
 31
0.0
  0
LINE
  5
13A
330
1F
100
AcDbEntity
  8
0
  6
Continuous
 62
     7
370
    25
100
AcDbLine
 10
0.0682655333
 20
0.0365125
 30
0.0
 11
0.0559073333
 21
0.0370856953
 31
0.0
  0
LINE
  5
13B
330
1F
100
AcDbEntity
  8
0
  6
Continuous
 62
     7
370
    25
100
AcDbLine
 10
-0.0891740502
 20
0.0438148278
 30
0.0
 11
-1.1774995853
 21
0.0942933012
 31
0.0
  0
LINE
  5
13C
330
1F
100
AcDbEntity
  8
0
  6
Continuous
 62
     7
370
    25
100
AcDbLine
 10
-1.2133960344
 20
0.0228547363
 30
0.0
 11
0.0508206936
 21
-0.0357818833
 31
0.0
  0
LINE
  5
13D
330
1F
100
AcDbEntity
  8
0
  6
Continuous
 62
     7
370
    25
100
AcDbLine
 10
-1.2140120853
 20
0.0228495388
 30
0.0
 11
-1.2110456884
 21
0.0229702383
 31
0.0
  0
LINE
  5
13E
330
1F
100
AcDbEntity
  8
0
  6
Continuous
 62
     7
370
    25
100
AcDbLine
 10
-1.1774995853
 20
0.0638228119
 30
0.0
 11
-1.1774995853
 21
0.3188591778
 31
0.0
  0
LINE
  5
13F
330
1F
100
AcDbEntity
  8
0
  6
Continuous
 62
     7
370
    25
100
AcDbLine
 10
-1.2505245853
 20
0.3776780872
 30
0.0
 11
-1.2505245853
 21
0.0593620388
 31
0.0
  0
LINE
  5
140
330
1F
100
AcDbEntity
  8
0
  6
Continuous
 62
     7
370
    25
100
AcDbLine
 10
0.0674192308
 20
-0.0365125
 30
0.0
 11
1.7388999965
 21
-0.0365125
 31
0.0
  0
LINE
  5
141
330
1F
100
AcDbEntity
  8
0
  6
Continuous
 62
     7
370
    25
100
AcDbLine
 10
0.0674192308
 20
0.0365125
 30
0.0
 11
1.7388998038
 21
0.0365125
 31
0.0
  0
LINE
  5
142
330
1F
100
AcDbEntity
  8
0
  6
Continuous
 62
     7
370
    25
100
AcDbLine
 10
1.5305676075
 20
0.5648325
 30
0.0
 11
-0.0900003701
 21
0.5648325
 31
0.0
  0
LINE
  5
143
330
1F
100
AcDbEntity
  8
0
  6
Continuous
 62
     7
370
    25
100
AcDbLine
 10
-0.1684017284
 20
0.4918075
 30
0.0
 11
1.9578111038
 21
0.4918075
 31
0.0
  0
LINE
  5
144
330
1F
100
AcDbEntity
  8
0
  6
Continuous
 62
     7
370
    25
100
AcDbLine
 10
1.781781869
 20
-0.0315791695
 30
0.0
 11
2.3185942112
 21
0.0335130845
 31
0.0
  0
LINE
  5
145
330
1F
100
AcDbEntity
  8
0
  6
Continuous
 62
     7
370
    25
100
AcDbLine
 10
2.3913213751
 20
0.0423317622
 30
0.0
 11
2.5217004191
 21
0.0581411339
 31
0.0
  0
LINE
  5
146
330
1F
100
AcDbEntity
  8
0
  6
Continuous
 62
     7
370
    25
100
AcDbLine
 10
2.5129100147
 20
0.1306351296
 30
0.0
 11
1.901662329
 21
0.0565170692
 31
0.0
  0
LINE
  5
147
330
1F
100
AcDbEntity
  8
0
  6
Continuous
 62
     7
370
    25
100
AcDbLine
 10
1.7685798213
 20
0.0403798836
 30
0.0
 11
1.7366857156
 21
0.0365125
 31
0.0
  0
LINE
  5
148
330
1F
100
AcDbEntity
  8
0
  6
Continuous
 62
     7
370
    25
100
AcDbLine
 10
0.4880573788
 20
1.0607675
 30
0.0
 11
1.6382647431
 21
1.0607675
 31
0.0
  0
LINE
  5
149
330
1F
100
AcDbEntity
  8
0
  6
Continuous
 62
     7
370
    25
100
AcDbLine
 10
1.8560864424
 20
1.1337925
 30
0.0
 11
0.4880573788
 21
1.1337925
 31
0.0
  0
LINE
  5
14A
330
1F
100
AcDbEntity
  8
0
  6
Continuous
 62
     7
370
    25
100
AcDbLine
 10
2.7436202544
 20
0.5648325
 30
0.0
 11
2.0368581643
 21
0.5648325
 31
0.0
  0
LINE
  5
14B
330
1F
100
AcDbEntity
  8
0
  6
Continuous
 62
     7
370
    25
100
AcDbLine
 10
2.0338354935
 20
0.4918075
 30
0.0
 11
2.2210512999
 21
0.4918075
 31
0.0
  0
LINE
  5
14C
330
1F
100
AcDbEntity
  8
0
  6
Continuous
 62
     7
370
    25
100
AcDbLine
 10
2.2351955508
 20
0.4918075
 30
0.0
 11
2.2795405121
 21
0.4918075
 31
0.0
  0
LINE
  5
14D
330
1F
100
AcDbEntity
  8
0
  6
Continuous
 62
     7
370
    25
100
AcDbLine
 10
2.2936847629
 20
0.4918075
 30
0.0
 11
2.7422415592
 21
0.4918075
 31
0.0
  0
LINE
  5
14E
330
1F
100
AcDbEntity
  8
0
  6
Continuous
 62
     7
370
    25
100
AcDbLine
 10
0.0684140343
 20
0.0365125
 30
0.0
 11
0.0538967057
 21
0.0373041531
 31
0.0
  0
LINE
  5
14F
330
1F
100
AcDbEntity
  8
0
  6
Continuous
 62
     7
370
    25
100
AcDbLine
 10
-0.0904090377
 20
0.0451733758
 30
0.0
 11
-1.1774995853
 21
0.1044541596
 31
0.0
  0
LINE
  5
150
330
1F
100
AcDbEntity
  8
0
  6
Continuous
 62
     7
370
    25
100
AcDbLine
 10
-1.1798031001
 20
0.3184512636
 30
0.0
 11
-0.8390699195
 21
0.378789443
 31
0.0
  0
LINE
  5
151
330
1F
100
AcDbEntity
  8
0
  6
Continuous
 62
     7
370
    25
100
AcDbLine
 10
-0.8252622606
 20
0.3812345497
 30
0.0
 11
-0.7809766244
 21
0.3890767993
 31
0.0
  0
LINE
  5
152
330
1F
100
AcDbEntity
  8
0
  6
Continuous
 62
     7
370
    25
100
AcDbLine
 10
-0.7671689655
 20
0.3915219061
 30
0.0
 11
-0.455438626
 21
0.4467241646
 31
0.0
  0
LINE
  5
153
330
1F
100
AcDbEntity
  8
0
  6
Continuous
 62
     7
370
    25
100
AcDbLine
 10
-0.4480960095
 20
0.5221855596
 30
0.0
 11
-1.2481264829
 21
0.3805134686
 31
0.0
  0
LINE
  5
154
330
1F
100
AcDbEntity
  8
0
  6
Continuous
 62
     7
370
    25
100
AcDbLine
 10
2.3868547675
 20
-0.1719135285
 30
0.0
 11
2.3886397852
 21
-0.1687710765
 31
0.0
  0
LINE
  5
155
330
1F
100
AcDbEntity
  8
0
  6
Continuous
 62
     7
370
    25
100
AcDbLine
 10
1.712991778
 20
1.0607675
 30
0.0
 11
1.8560864424
 21
1.0607675
 31
0.0
  0
LINE
  5
156
330
1F
100
AcDbEntity
  8
0
  6
Continuous
 62
     7
370
    25
100
AcDbLine
 10
2.7648086923
 20
0.5585685596
 30
0.0
 11
1.9230270605
 21
1.1276575263
 31
0.0
  0
LINE
  5
157
330
1F
100
AcDbEntity
  8
0
  6
Continuous
 62
     7
370
    25
100
AcDbLine
 10
2.3777014138
 20
-0.1538795724
 30
0.0
 11
2.3325088755
 21
-0.1538795724
 31
0.0
  0
LINE
  5
158
330
1F
100
AcDbEntity
  8
0
  6
Continuous
 62
     7
370
    25
100
AcDbLine
 10
0.3592999725
 20
1.0831169812
 30
0.0
 11
0.409071743
 21
1.0296808372
 31
0.0
  0
LINE
  5
159
330
1F
100
AcDbEntity
  8
0
  6
Continuous
 62
     7
370
    25
100
AcDbLine
 10
0.4880573788
 20
1.1337925
 30
0.0
 11
0.4880573788
 21
1.0607675
 31
0.0
  0
LINE
  5
15A
330
1F
100
AcDbEntity
  8
0
  6
Continuous
 62
     7
370
    25
100
AcDbLine
 10
1.9583134157
 20
1.0960914861
 30
0.0
 11
2.7646088631
 21
0.5587026972
 31
0.0
  0
LINE
  5
15B
330
1F
100
AcDbEntity
  8
0
  6
Continuous
 62
     7
370
    25
100
AcDbLine
 10
1.9533560272
 20
1.011637523
 30
0.0
 11
2.6237400459
 21
0.5648325
 31
0.0
  0
LINE
  5
15C
330
1F
100
AcDbEntity
  8
0
  6
Continuous
 62
     7
370
    25
100
AcDbLine
 10
-1.1774995853
 20
0.2117620388
 30
0.0
 11
-1.2505245853
 21
0.2117620388
 31
0.0
  0
LINE
  5
15D
330
1F
100
AcDbEntity
  8
0
  6
Continuous
 62
     7
370
    25
100
AcDbLine
 10
1.8560864424
 20
1.0607675
 30
0.0
 11
1.8560864424
 21
1.1337925
 31
0.0
  0
LINE
  5
15E
330
1F
100
AcDbEntity
  8
0
  6
Continuous
 62
     7
370
    25
100
AcDbLine
 10
1.9304191405
 20
1.0548309981
 30
0.0
 11
1.9618910412
 21
1.101383417
 31
0.0
  0
LINE
  5
15F
330
1F
100
AcDbEntity
  8
0
  6
Continuous
 62
     7
370
    25
100
AcDbLine
 10
1.5600020785
 20
0.52832
 30
0.0
 11
-0.1827720853
 21
0.52832
 31
0.0
  0
LINE
  5
160
330
1F
100
AcDbEntity
  8
0
  6
Continuous
 62
     7
370
    25
100
AcDbLine
 10
1.5520303125
 20
0.4694133452
 30
0.0
 11
1.5500268424
 21
0.4692881771
 31
0.0
  0
LINE
  5
161
330
1F
100
AcDbEntity
  8
0
  6
Continuous
 62
     7
370
    25
100
AcDbLine
 10
2.6084242292
 20
0.2111433085
 30
0.0
 11
2.694902424
 21
0.4918075
 31
0.0
  0
LINE
  5
162
330
1F
100
AcDbEntity
  8
0
  6
Continuous
 62
     7
370
    25
100
AcDbLine
 10
2.6782116003
 20
0.1896404376
 30
0.0
 11
2.7792527495
 21
0.5175685645
 31
0.0
  0
LINE
  5
163
330
1F
100
AcDbEntity
  8
0
  6
Continuous
 62
     7
370
    25
100
AcDbLine
 10
1.8502067272
 20
0.1201696368
 30
0.0
 11
1.9578111038
 21
0.4918075
 31
0.0
  0
LINE
  5
164
330
1F
100
AcDbEntity
  8
0
  6
Continuous
 62
     7
370
    25
100
AcDbLine
 10
1.9203506724
 20
0.0998600929
 30
0.0
 11
2.0338354935
 21
0.4918075
 31
0.0
  0
LINE
  5
165
330
1F
100
AcDbEntity
  8
0
  6
Continuous
 62
     7
370
    25
100
AcDbLine
 10
1.9203506724
 20
0.0998600929
 30
0.0
 11
1.8502067272
 21
0.1201696368
 31
0.0
  0
LINE
  5
166
330
1F
100
AcDbEntity
  8
0
  6
Continuous
 62
     7
370
    25
100
AcDbLine
 10
-0.369680497
 20
0.4609481044
 30
0.0
 11
-0.0183323371
 21
0.0744475705
 31
0.0
  0
LINE
  5
167
330
1F
100
AcDbEntity
  8
0
  6
Continuous
 62
     7
370
    25
100
AcDbLine
 10
-0.4562460457
 20
0.4476123666
 30
0.0
 11
-0.0723675716
 21
0.0253268616
 31
0.0
  0
LINE
  5
168
330
1F
100
AcDbEntity
  8
0
  6
Continuous
 62
     7
370
    25
100
AcDbLine
 10
-0.0183323371
 20
0.0744475705
 30
0.0
 11
-0.0723675716
 21
0.0253268616
 31
0.0
  0
LINE
  5
169
330
1F
100
AcDbEntity
  8
0
  6
Continuous
 62
     7
370
    25
100
AcDbLine
 10
1.5600020785
 20
0.5283191893
 30
0.0
 11
1.5600020785
 21
0.4918075
 31
0.0
  0
LINE
  5
16A
330
1F
100
AcDbEntity
  8
0
  6
Continuous
 62
     7
370
    25
100
AcDbLine
 10
1.9626318242
 20
0.5648325
 30
0.0
 11
1.6052946424
 21
0.5648325
 31
0.0
  0
LINE
  5
16B
330
1F
100
AcDbEntity
  8
0
  6
Continuous
 62
     7
370
    25
100
AcDbLine
 10
0.409071743
 20
1.0296808372
 30
0.0
 11
-0.0900003701
 21
0.5648325
 31
0.0
  0
LINE
  5
16C
330
1F
100
AcDbEntity
  8
0
  6
Continuous
 62
     7
370
    25
100
AcDbLine
 10
0.3592999725
 20
1.0831169812
 30
0.0
 11
-0.1995570978
 21
0.5625834289
 31
0.0
  0
LINE
  5
16D
330
1F
100
AcDbEntity
  8
0
  6
Continuous
 62
     7
370
    25
100
AcDbLine
 10
1.712991778
 20
1.0607675
 30
0.0
 11
1.6052946424
 21
0.5648325
 31
0.0
  0
LINE
  5
16E
330
1F
100
AcDbEntity
  8
0
  6
Continuous
 62
     7
370
    25
100
AcDbLine
 10
1.6382647431
 20
1.0607675
 30
0.0
 11
1.5305676075
 21
0.5648325
 31
0.0
  0
LINE
  5
16F
330
1F
100
AcDbEntity
  8
0
  6
Continuous
 62
     7
370
    25
100
AcDbLine
 10
2.5216090116
 20
0.058135632
 30
0.0
 11
2.5217002039
 21
0.0581411078
 31
0.0
  0
LINE
  5
170
330
1F
100
AcDbEntity
  8
0
  6
Continuous
 62
     7
370
    25
100
AcDbLine
 10
1.8560864424
 20
1.09728
 30
0.0
 11
0.4880573788
 21
1.09728
 31
0.0
  0
LINE
  5
171
330
1F
100
AcDbEntity
  8
0
  6
Continuous
 62
     7
370
    25
100
AcDbLine
 10
1.683557307
 20
1.1337925
 30
0.0
 11
1.683557307
 21
1.09728
 31
0.0
  0
LINE
  5
172
330
1F
100
AcDbEntity
  8
0
  6
Continuous
 62
     7
370
    25
100
AcDbLine
 10
-0.1798240466
 20
0.4918075
 30
0.0
 11
-0.369680497
 21
0.4609481044
 31
0.0
  0
LINE
  5
173
330
1F
100
AcDbEntity
  8
0
  6
Continuous
 62
     7
370
    25
100
AcDbLine
 10
-0.1995570978
 20
0.5625834289
 30
0.0
 11
-0.4480713617
 21
0.5221897527
 31
0.0
  0
LINE
  5
174
330
1F
100
AcDbEntity
  8
0
  6
Continuous
 62
     7
370
    25
100
AcDbLine
 10
0.0674192308
 20
0.0
 30
0.0
 11
0.0674192308
 21
0.0365125
 31
0.0
  0
LINE
  5
175
330
1F
100
AcDbEntity
  8
0
  6
Continuous
 62
     7
370
    25
100
AcDbLine
 10
1.7388913358
 20
0.0365125
 30
0.0
 11
1.7388913358
 21
-0.0365125
 31
0.0
  0
LINE
  5
176
330
1F
100
AcDbEntity
  8
0
  6
Continuous
 62
     7
370
    25
100
AcDbLine
 10
-0.4501341671
 20
0.4874384891
 30
0.0
 11
-1.2292276482
 21
0.3494739912
 31
0.0
  0
LINE
  5
177
330
1F
100
AcDbEntity
  8
0
  6
Continuous
 62
     7
370
    25
100
AcDbLine
 10
2.3551066035
 20
-0.1763712724
 30
0.0
 11
2.3568916212
 21
-0.1732288203
 31
0.0
  0
LINE
  5
178
330
1F
100
AcDbEntity
  8
0
  6
Continuous
 62
     7
370
    25
100
AcDbLine
 10
-1.2140120853
 20
0.0228495388
 30
0.0
 11
-1.2140120853
 21
0.3365118717
 31
0.0
  0
LINE
  5
179
330
1F
100
AcDbEntity
  8
0
  6
Continuous
 62
     7
370
    25
100
AcDbLine
 10
1.9573870019
 20
1.0011659601
 30
0.0
 11
1.9707268123
 21
0.9279242271
 31
0.0
  0
LINE
  5
17A
330
1F
100
AcDbEntity
  8
0
  6
Continuous
 62
     7
370
    25
100
AcDbLine
 10
1.9782753002
 20
0.8864795354
 30
0.0
 11
2.036986422
 21
0.5641283059
 31
0.0
  0
LINE
  5
17B
330
1F
100
AcDbEntity
  8
0
  6
Continuous
 62
     7
370
    25
100
AcDbLine
 10
2.0498964853
 20
0.4932460839
 30
0.0
 11
2.0501585003
 21
0.4918075
 31
0.0
  0
LINE
  5
17C
330
1F
100
AcDbEntity
  8
0
  6
Continuous
 62
     7
370
    25
100
AcDbLine
 10
1.8725184524
 20
1.0595966148
 30
0.0
 11
1.9626318242
 21
0.5648325
 31
0.0
  0
LINE
  5
17D
330
1F
100
AcDbEntity
  8
0
  6
Continuous
 62
     7
370
    25
100
AcDbLine
 10
1.9028076133
 20
1.1339207413
 30
0.0
 11
1.9011015152
 21
1.1283509129
 31
0.0
  0
LINE
  5
17E
330
1F
100
AcDbEntity
  8
0
  6
Continuous
 62
     7
370
    25
100
AcDbLine
 10
1.9007066548
 20
1.1270618286
 30
0.0
 11
1.9006821089
 21
1.1269816945
 31
0.0
  0
LINE
  5
17F
330
1F
100
AcDbEntity
  8
0
  6
Continuous
 62
     7
370
    25
100
AcDbLine
 10
2.3551067112
 20
-0.1538795724
 30
0.0
 11
2.3551067112
 21
-0.1313878724
 31
0.0
  0
LINE
  5
180
330
1F
100
AcDbEntity
  8
0
  6
Continuous
 62
     7
370
    25
100
AcDbLine
 10
2.3551067112
 20
-0.1173670724
 30
0.0
 11
2.3551067112
 21
0.0700322236
 31
0.0
  0
LINE
  5
181
330
1F
100
AcDbEntity
  8
0
  6
Continuous
 62
     7
370
    25
100
AcDbLine
 10
1.6895198919
 20
1.1413282699
 30
0.0
 11
1.6932029806
 21
1.158288541
 31
0.0
  0
LINE
  5
182
330
1F
100
AcDbEntity
  8
0
  6
Continuous
 62
     7
370
    25
100
AcDbLine
 10
-0.0510681427
 20
0.005265113
 30
0.0
 11
-1.1780335699
 21
0.0575357733
 31
0.0
  0
LINE
  5
183
330
1F
100
AcDbEntity
  8
0
  6
Continuous
 62
     7
370
    25
100
AcDbLine
 10
2.512020897
 20
0.0943881317
 30
0.0
 11
1.8701749075
 21
0.0165598128
 31
0.0
  0
LINE
  5
184
330
1F
100
AcDbEntity
  8
0
  6
Continuous
 62
     7
370
    25
100
AcDbLine
 10
2.780603704
 20
0.52832
 30
0.0
 11
2.2735383698
 21
0.52832
 31
0.0
  0
LINE
  5
185
330
1F
100
AcDbEntity
  8
0
  6
Continuous
 62
     7
370
    25
100
AcDbLine
 10
2.2411976931
 20
0.52832
 30
0.0
 11
2.0167101661
 21
0.52832
 31
0.0
  0
LINE
  5
186
330
1F
100
AcDbEntity
  8
0
  6
Continuous
 62
     7
370
    25
100
AcDbLine
 10
2.0136489408
 20
0.52832
 30
0.0
 11
1.9698826623
 21
0.52832
 31
0.0
  0
LINE
  5
187
330
1F
100
AcDbEntity
  8
0
  6
Continuous
 62
     7
370
    25
100
AcDbLine
 10
1.5535440683
 20
0.4843416348
 30
0.0
 11
1.55030556
 21
0.4694286143
 31
0.0
  0
ARC
  5
188
330
1F
100
AcDbEntity
  8
0
  6
Continuous
 62
     7
370
    25
100
AcDbCircle
 10
-1.2140120853
 20
0.0593620388
 30
0.0
 40
0.0365125000000001
100
AcDbArc
 50
180.0
 51
270.0
  0
ARC
  5
189
330
1F
100
AcDbEntity
  8
0
  6
Continuous
 62
     7
370
    25
100
AcDbCircle
 10
1.5600020785
 20
0.52832
 30
0.0
 40
0.0444499999999994
100
AcDbArc
 50
235.2280559681
 51
304.771944032
  0
ARC
  5
18A
330
1F
100
AcDbEntity
  8
0
  6
Continuous
 62
     7
370
    25
100
AcDbCircle
 10
0.4880573788
 20
0.94488
 30
0.0
 40
0.1158874999999933
100
AcDbArc
 50
90.0
 51
132.9665805578
  0
ARC
  5
18B
330
1F
100
AcDbEntity
  8
0
  6
Continuous
 62
     7
370
    25
100
AcDbCircle
 10
0.4880573788
 20
0.94488
 30
0.0
 40
0.1889124999999908
100
AcDbArc
 50
90.0
 51
132.9665805578
  0
ARC
  5
18C
330
1F
100
AcDbEntity
  8
0
  6
Continuous
 62
     7
370
    25
100
AcDbCircle
 10
2.3551067112
 20
-0.1538795724
 30
0.0
 40
0.0365125000000002
100
AcDbArc
 50
0.0
 51
180.0
  0
ARC
  5
18D
330
1F
100
AcDbEntity
  8
0
  6
Continuous
 62
     7
370
    25
100
AcDbCircle
 10
2.3551067112
 20
-0.1538795724
 30
0.0
 40
0.0365125000000002
100
AcDbArc
 50
180.0
 51
0.0
  0
ARC
  5
18E
330
1F
100
AcDbEntity
  8
0
  6
Continuous
 62
     7
370
    25
100
AcDbCircle
 10
2.3551067112
 20
-0.1538795724
 30
0.0
 40
0.0224917000000002
100
AcDbArc
 50
180.0
 51
0.0
  0
ARC
  5
18F
330
1F
100
AcDbEntity
  8
0
  6
Continuous
 62
     7
370
    25
100
AcDbCircle
 10
2.3551067112
 20
-0.1538795724
 30
0.0
 40
0.0224917000000002
100
AcDbArc
 50
0.0
 51
180.0
  0
ARC
  5
190
330
1F
100
AcDbEntity
  8
0
  6
Continuous
 62
     7
370
    25
100
AcDbCircle
 10
1.8560864424
 20
0.94488
 30
0.0
 40
0.1158875000008195
100
AcDbArc
 50
81.8484004037
 51
90.0
  0
ARC
  5
191
330
1F
100
AcDbEntity
  8
0
  6
Continuous
 62
     7
370
    25
100
AcDbCircle
 10
1.8560864424
 20
0.94488
 30
0.0
 40
0.1889125000008188
100
AcDbArc
 50
55.9392238829
 51
72.1194865555
  0
ARC
  5
192
330
1F
100
AcDbEntity
  8
0
  6
Continuous
 62
     7
370
    25
100
AcDbCircle
 10
1.8560864424
 20
0.94488
 30
0.0
 40
0.188912500000346
100
AcDbArc
 50
73.6700375626
 51
90.0
  0
ARC
  5
193
330
1F
100
AcDbEntity
  8
0
  6
Continuous
 62
     7
370
    25
100
AcDbCircle
 10
2.5095376513
 20
0.1279059263
 30
0.0
 40
0.0078272776625734
100
AcDbArc
 50
25.7533062367
 51
53.2766604883
  0
ARC
  5
194
330
1F
100
AcDbEntity
  8
0
  6
Continuous
 62
     7
370
    25
100
AcDbCircle
 10
-0.8031968275
 20
0.385592672
 30
0.0
 40
0.0365125000000003
100
AcDbArc
 50
90.0
 51
270.0
  0
ARC
  5
195
330
1F
100
AcDbEntity
  8
0
  6
Continuous
 62
     7
370
    25
100
AcDbCircle
 10
-0.8031968275
 20
0.385592672
 30
0.0
 40
0.0224917
100
AcDbArc
 50
270.0
 51
90.0
  0
ARC
  5
196
330
1F
100
AcDbEntity
  8
0
  6
Continuous
 62
     7
370
    25
100
AcDbCircle
 10
-0.8031968275
 20
0.385592672
 30
0.0
 40
0.0224917
100
AcDbArc
 50
90.0
 51
270.0
  0
ARC
  5
197
330
1F
100
AcDbEntity
  8
0
  6
Continuous
 62
     7
370
    25
100
AcDbCircle
 10
-0.8031968275
 20
0.385592672
 30
0.0
 40
0.0365125000000003
100
AcDbArc
 50
270.0
 51
90.0
  0
ARC
  5
198
330
1F
100
AcDbEntity
  8
0
  6
Continuous
 62
     7
370
    25
100
AcDbCircle
 10
2.4984926793
 20
0.2441594248
 30
0.0
 40
0.1874545712839148
100
AcDbArc
 50
277.0835740837
 51
343.0585098784
  0
ARC
  5
199
330
1F
100
AcDbEntity
  8
0
  6
Continuous
 62
     7
370
    25
100
AcDbCircle
 10
0.0674192308
 20
0.1524
 30
0.0
 40
0.1158875000000004
100
AcDbArc
 50
222.2723934546
 51
270.0
  0
ARC
  5
19A
330
1F
100
AcDbEntity
  8
0
  6
Continuous
 62
     7
370
    25
100
AcDbCircle
 10
0.0674192308
 20
0.1524
 30
0.0
 40
0.1889125000000016
100
AcDbArc
 50
222.2723934546
 51
269.1003554189
  0
ARC
  5
19B
330
1F
100
AcDbEntity
  8
0
  6
Continuous
 62
     7
370
    25
100
AcDbCircle
 10
1.7388913358
 20
0.1524
 30
0.0
 40
0.1158875000000127
100
AcDbArc
 50
270.0
 51
343.852105686
  0
ARC
  5
19C
330
1F
100
AcDbEntity
  8
0
  6
Continuous
 62
     7
370
    25
100
AcDbCircle
 10
1.7388913358
 20
0.1524
 30
0.0
 40
0.1889125000000082
100
AcDbArc
 50
270.0
 51
343.852105686
  0
ARC
  5
19D
330
1F
100
AcDbEntity
  8
0
  6
Continuous
 62
     7
370
    25
100
AcDbCircle
 10
1.683557307
 20
1.09728
 30
0.0
 40
0.0444500000000019
100
AcDbArc
 50
55.2280559681
 51
124.7719440319
  0
ARC
  5
19E
330
1F
100
AcDbEntity
  8
0
  6
Continuous
 62
     7
370
    25
100
AcDbCircle
 10
2.7443590639
 20
0.52832
 30
0.0
 40
0.0365125000000049
100
AcDbArc
 50
21.8955018367
 51
76.4831559259
  0
ARC
  5
19F
330
1F
100
AcDbEntity
  8
0
  6
Continuous
 62
     7
370
    25
100
AcDbCircle
 10
2.2573680314
 20
0.4955834331
 30
0.0
 40
0.0365125
100
AcDbArc
 50
270.0
 51
90.0
  0
ARC
  5
1A0
330
1F
100
AcDbEntity
  8
0
  6
Continuous
 62
     7
370
    25
100
AcDbCircle
 10
2.2573680314
 20
0.4955834331
 30
0.0
 40
0.0224916999999999
100
AcDbArc
 50
270.0
 51
90.0
  0
ARC
  5
1A1
330
1F
100
AcDbEntity
  8
0
  6
Continuous
 62
     7
370
    25
100
AcDbCircle
 10
2.2573680314
 20
0.4955834331
 30
0.0
 40
0.0365125
100
AcDbArc
 50
90.0
 51
270.0
  0
ARC
  5
1A2
330
1F
100
AcDbEntity
  8
0
  6
Continuous
 62
     7
370
    25
100
AcDbCircle
 10
2.2573680314
 20
0.4955834331
 30
0.0
 40
0.0224916999999999
100
AcDbArc
 50
90.0
 51
270.0
  0
ARC
  5
1A3
330
1F
100
AcDbEntity
  8
0
  6
Continuous
 62
     7
370
    25
100
AcDbCircle
 10
2.4990058446
 20
0.2499663391
 30
0.0
 40
0.116781614794715
100
AcDbArc
 50
277.4846998869
 51
332.948162757
  0
MTEXT
  5
1A5
330
1F
100
AcDbEntity
  8
0
  6
Continuous
 62
     7
100
AcDbMText
 10
-1.2505245853
 20
-0.1914116388
 30
0.0
 40
0.00483362
 41
0.0
 71
     1
 72
     1
  1
Producto SOLIDWORKS Educational.
  7
SLDTEXTSTYLE0
 73
     1
 44
1.0
  0
MTEXT
  5
1A6
330
1F
100
AcDbEntity
  8
0
  6
Continuous
 62
     7
100
AcDbMText
 10
-1.2505245853
 20
-0.1986620688
 30
0.0
 40
0.00483362
 41
0.0
 71
     1
 72
     1
  1
Solo para uso en la enseńanza.
  7
SLDTEXTSTYLE0
 73
     1
 44
1.0
  0
ENDSEC
  0
SECTION
  2
OBJECTS
  0
DICTIONARY
  5
C
330
0
100
AcDbDictionary
281
     1
  3
ACAD_GROUP
350
D
  3
ACAD_LAYOUT
350
1A
  3
ACAD_MLINESTYLE
350
17
  3
ACAD_PLOTSETTINGS
350
19
  3
ACAD_PLOTSTYLENAME
350
E
  3
ACAD_SCALELIST
350
47
  3
DWGPROPS
350
1A7
  0
DICTIONARY
  5
D
102
{ACAD_REACTORS
330
C
102
}
330
C
100
AcDbDictionary
281
     1
  0
DICTIONARY
  5
1A
102
{ACAD_REACTORS
330
C
102
}
330
C
100
AcDbDictionary
281
     1
  3
Layout1
350
1E
  3
Layout2
350
26
  3
Model
350
22
  0
DICTIONARY
  5
17
102
{ACAD_REACTORS
330
C
102
}
330
C
100
AcDbDictionary
281
     1
  3
Standard
350
18
  0
DICTIONARY
  5
19
102
{ACAD_REACTORS
330
C
102
}
330
C
100
AcDbDictionary
281
     1
  0
ACDBDICTIONARYWDFLT
  5
E
102
{ACAD_REACTORS
330
C
102
}
330
C
100
AcDbDictionary
281
     1
  3
Normal
350
F
100
AcDbDictionaryWithDefault
340
F
  0
DICTIONARY
  5
47
102
{ACAD_REACTORS
330
C
102
}
330
C
100
AcDbDictionary
281
     1
  3
A0
350
48
  3
A1
350
49
  3
A2
350
4A
  3
A3
350
4B
  3
A4
350
4C
  3
A5
350
4D
  3
A6
350
4E
  3
A7
350
4F
  3
A8
350
50
  3
A9
350
51
  3
B0
350
52
  3
B1
350
53
  3
B2
350
54
  3
B3
350
55
  3
B4
350
56
  3
B5
350
57
  3
B6
350
58
  0
XRECORD
  5
1A7
102
{ACAD_REACTORS
330
C
102
}
330
C
100
AcDbXrecord
280
     1
  1
DWGPROPS COOKIE
  2

  3

  4

  6

  7

  8
dssr2
  9

300
=
301
=
302
=
303
=
304
=
305
=
306
=
307
=
308
=
309
=
 40
0.0
 41
2461181.062970047
 42
2461181.06300963
  1

 90
        0
  0
LAYOUT
  5
1E
102
{ACAD_REACTORS
330
1A
102
}
330
1A
100
AcDbPlotSettings
  1

  2
none_device
  4

  6

 40
0.0
 41
0.0
 42
0.0
 43
0.0
 44
0.0
 45
0.0
 46
0.0
 47
0.0
 48
0.0
 49
0.0
140
0.0
141
0.0
142
1.0
143
1.0
 70
   688
 72
     1
 73
     0
 74
     5
  7

 75
    16
147
1.0
148
0.0
149
0.0
100
AcDbLayout
  1
Layout1
 70
     1
 71
     1
 10
0.0
 20
0.0
 11
420.0
 21
297.0
 12
0.0
 22
0.0
 32
0.0
 14
1.0000000000E+20
 24
1.0000000000E+20
 34
1.0000000000E+20
 15
-1.0000000000E+20
 25
-1.0000000000E+20
 35
-1.0000000000E+20
146
0.0
 13
0.0
 23
0.0
 33
0.0
 16
1.0
 26
0.0
 36
0.0
 17
0.0
 27
1.0
 37
0.0
 76
     0
330
1B
  0
LAYOUT
  5
26
102
{ACAD_REACTORS
330
1A
102
}
330
1A
100
AcDbPlotSettings
  1

  2
none_device
  4

  6

 40
0.0
 41
0.0
 42
0.0
 43
0.0
 44
0.0
 45
0.0
 46
0.0
 47
0.0
 48
0.0
 49
0.0
140
0.0
141
0.0
142
1.0
143
1.0
 70
   688
 72
     1
 73
     0
 74
     5
  7

 75
    16
147
1.0
148
0.0
149
0.0
100
AcDbLayout
  1
Layout2
 70
     1
 71
     2
 10
0.0
 20
0.0
 11
0.0
 21
0.0
 12
0.0
 22
0.0
 32
0.0
 14
0.0
 24
0.0
 34
0.0
 15
0.0
 25
0.0
 35
0.0
146
0.0
 13
0.0
 23
0.0
 33
0.0
 16
1.0
 26
0.0
 36
0.0
 17
0.0
 27
1.0
 37
0.0
 76
     0
330
23
  0
LAYOUT
  5
22
102
{ACAD_REACTORS
330
1A
102
}
330
1A
100
AcDbPlotSettings
  1

  2
none_device
  4
ANSI_A_(11.00_x_8.50_Inches)
  6

 40
6.35
 41
19.05
 42
6.35000508
 43
19.05000254
 44
279.4
 45
215.9
 46
80.8491837587
 47
55.6948806185
 48
0.0
 49
0.0
140
0.0
141
0.0
142
2.7012974158
143
1.0
 70
  1696
 72
     0
 73
     0
 74
     0
  7

 75
     0
147
0.0179189148
148
-1300.4909072572
149
0.0
100
AcDbLayout
  1
Model
 70
     1
 71
     0
 10
0.0
 20
0.0
 11
420.0
 21
297.0
 12
0.0
 22
0.0
 32
0.0
 14
-1.2505245853
 24
-0.1903920724
 34
0.0
 15
2.7808715639
 25
1.158288541
 35
0.0
146
0.0
 13
0.0
 23
0.0
 33
0.0
 16
1.0
 26
0.0
 36
0.0
 17
0.0
 27
1.0
 37
0.0
 76
     0
330
1F
331
29
  0
MLINESTYLE
  5
18
102
{ACAD_REACTORS
330
17
102
}
330
17
100
AcDbMlineStyle
  2
Standard
 70
     0
  3

 62
   256
 51
90.0
 52
90.0
 71
     2
 49
0.5
 62
   256
  6
BYLAYER
 49
-0.5
 62
   256
  6
BYLAYER
  0
ACDBPLACEHOLDER
  5
F
102
{ACAD_REACTORS
330
E
102
}
330
E
  0
SCALE
  5
48
102
{ACAD_REACTORS
330
47
102
}
330
47
100
AcDbScale
 70
     0
300
1:1
140
1.0
141
1.0
290
     1
  0
SCALE
  5
49
102
{ACAD_REACTORS
330
47
102
}
330
47
100
AcDbScale
 70
     0
300
1:2
140
1.0
141
2.0
290
     0
  0
SCALE
  5
4A
102
{ACAD_REACTORS
330
47
102
}
330
47
100
AcDbScale
 70
     0
300
1:4
140
1.0
141
4.0
290
     0
  0
SCALE
  5
4B
102
{ACAD_REACTORS
330
47
102
}
330
47
100
AcDbScale
 70
     0
300
1:5
140
1.0
141
5.0
290
     0
  0
SCALE
  5
4C
102
{ACAD_REACTORS
330
47
102
}
330
47
100
AcDbScale
 70
     0
300
1:8
140
1.0
141
8.0
290
     0
  0
SCALE
  5
4D
102
{ACAD_REACTORS
330
47
102
}
330
47
100
AcDbScale
 70
     0
300
1:10
140
1.0
141
10.0
290
     0
  0
SCALE
  5
4E
102
{ACAD_REACTORS
330
47
102
}
330
47
100
AcDbScale
 70
     0
300
1:16
140
1.0
141
16.0
290
     0
  0
SCALE
  5
4F
102
{ACAD_REACTORS
330
47
102
}
330
47
100
AcDbScale
 70
     0
300
1:20
140
1.0
141
20.0
290
     0
  0
SCALE
  5
50
102
{ACAD_REACTORS
330
47
102
}
330
47
100
AcDbScale
 70
     0
300
1:30
140
1.0
141
30.0
290
     0
  0
SCALE
  5
51
102
{ACAD_REACTORS
330
47
102
}
330
47
100
AcDbScale
 70
     0
300
1:40
140
1.0
141
40.0
290
     0
  0
SCALE
  5
52
102
{ACAD_REACTORS
330
47
102
}
330
47
100
AcDbScale
 70
     0
300
1:50
140
1.0
141
50.0
290
     0
  0
SCALE
  5
53
102
{ACAD_REACTORS
330
47
102
}
330
47
100
AcDbScale
 70
     0
300
1:100
140
1.0
141
100.0
290
     0
  0
SCALE
  5
54
102
{ACAD_REACTORS
330
47
102
}
330
47
100
AcDbScale
 70
     0
300
2:1
140
2.0
141
1.0
290
     0
  0
SCALE
  5
55
102
{ACAD_REACTORS
330
47
102
}
330
47
100
AcDbScale
 70
     0
300
4:1
140
4.0
141
1.0
290
     0
  0
SCALE
  5
56
102
{ACAD_REACTORS
330
47
102
}
330
47
100
AcDbScale
 70
     0
300
8:1
140
8.0
141
1.0
290
     0
  0
SCALE
  5
57
102
{ACAD_REACTORS
330
47
102
}
330
47
100
AcDbScale
 70
     0
300
10:1
140
10.0
141
1.0
290
     0
  0
SCALE
  5
58
102
{ACAD_REACTORS
330
47
102
}
330
47
100
AcDbScale
 70
     0
300
100:1
140
100.0
141
1.0
290
     0
  0
ENDSEC
  0
EOF
